<svg width="21" height="20" viewBox="0 0 21 20" fill="none" xmlns="http://www.w3.org/2000/svg">
<path d="M13.3055 7.3763L9.36385 11.3263L7.82219 9.7763C7.66527 9.61938 7.45244 9.53123 7.23052 9.53123C7.0086 9.53123 6.79577 9.61938 6.63885 9.7763C6.48193 9.93322 6.39378 10.1461 6.39378 10.368C6.39378 10.4779 6.41542 10.5867 6.45747 10.6882C6.49952 10.7897 6.56115 10.8819 6.63885 10.9596L8.77219 13.093C8.84966 13.1711 8.94182 13.2331 9.04337 13.2754C9.14492 13.3177 9.25384 13.3395 9.36385 13.3395C9.47386 13.3395 9.58278 13.3177 9.68433 13.2754C9.78588 13.2331 9.87805 13.1711 9.95552 13.093L14.4889 8.55964C14.5666 8.48194 14.6282 8.38969 14.6702 8.28818C14.7123 8.18666 14.7339 8.07785 14.7339 7.96797C14.7339 7.85809 14.7123 7.74928 14.6702 7.64776C14.6282 7.54624 14.5666 7.454 14.4889 7.3763C14.4112 7.2986 14.3189 7.23697 14.2174 7.19492C14.1159 7.15287 14.0071 7.13123 13.8972 7.13123C13.7873 7.13123 13.6785 7.15287 13.577 7.19492C13.4755 7.23697 13.3832 7.2986 13.3055 7.3763ZM10.5639 1.66797C9.4695 1.66797 8.38587 1.88352 7.37482 2.30231C6.36378 2.7211 5.44512 3.33492 4.6713 4.10875C3.10849 5.67155 2.23052 7.79116 2.23052 10.0013C2.22323 11.9256 2.88951 13.7917 4.11385 15.2763L2.44719 16.943C2.33156 17.0602 2.25322 17.209 2.22208 17.3706C2.19093 17.5323 2.20837 17.6995 2.27219 17.8513C2.3414 18.0012 2.45361 18.1272 2.59456 18.2133C2.73551 18.2993 2.89885 18.3416 3.06385 18.3346H10.5639C12.774 18.3346 14.8936 17.4567 16.4564 15.8939C18.0192 14.3311 18.8972 12.2114 18.8972 10.0013C18.8972 7.79116 18.0192 5.67155 16.4564 4.10875C14.8936 2.54594 12.774 1.66797 10.5639 1.66797ZM10.5639 16.668H5.07219L5.84719 15.893C6.0024 15.7368 6.08951 15.5256 6.08951 15.3055C6.08951 15.0853 6.0024 14.8741 5.84719 14.718C4.75601 13.628 4.0765 12.1934 3.92443 10.6586C3.77236 9.12384 4.15714 7.58381 5.01321 6.3009C5.86928 5.018 7.14368 4.0716 8.61928 3.62295C10.0949 3.17429 11.6804 3.25114 13.1057 3.8404C14.531 4.42965 15.7079 5.49486 16.4359 6.85454C17.1639 8.21422 17.3979 9.78426 17.0981 11.2971C16.7983 12.81 15.9833 14.1722 14.7918 15.1515C13.6003 16.1308 12.1062 16.6668 10.5639 16.668Z" fill="white" fill-opacity="0.8"/>
</svg>
