<svg width="25" height="25" viewBox="0 0 25 25" fill="none" xmlns="http://www.w3.org/2000/svg">
<mask id="mask0_2225_7585" style="mask-type:alpha" maskUnits="userSpaceOnUse" x="0" y="0" width="25" height="25">
<rect x="0.486328" y="0.398438" width="24" height="24" fill="#D9D9D9"/>
</mask>
<g mask="url(#mask0_2225_7585)">
<path d="M12.4863 14.3984C12.203 14.3984 11.9655 14.3026 11.7738 14.1109C11.5822 13.9193 11.4863 13.6818 11.4863 13.3984C11.4863 13.1151 11.5822 12.8776 11.7738 12.6859C11.9655 12.4943 12.203 12.3984 12.4863 12.3984C12.7697 12.3984 13.0072 12.4943 13.1988 12.6859C13.3905 12.8776 13.4863 13.1151 13.4863 13.3984C13.4863 13.6818 13.3905 13.9193 13.1988 14.1109C13.0072 14.3026 12.7697 14.3984 12.4863 14.3984ZM8.48633 14.3984C8.20299 14.3984 7.96549 14.3026 7.77383 14.1109C7.58216 13.9193 7.48633 13.6818 7.48633 13.3984C7.48633 13.1151 7.58216 12.8776 7.77383 12.6859C7.96549 12.4943 8.20299 12.3984 8.48633 12.3984C8.76966 12.3984 9.00716 12.4943 9.19883 12.6859C9.39049 12.8776 9.48633 13.1151 9.48633 13.3984C9.48633 13.6818 9.39049 13.9193 9.19883 14.1109C9.00716 14.3026 8.76966 14.3984 8.48633 14.3984ZM16.4863 14.3984C16.203 14.3984 15.9655 14.3026 15.7738 14.1109C15.5822 13.9193 15.4863 13.6818 15.4863 13.3984C15.4863 13.1151 15.5822 12.8776 15.7738 12.6859C15.9655 12.4943 16.203 12.3984 16.4863 12.3984C16.7697 12.3984 17.0072 12.4943 17.1988 12.6859C17.3905 12.8776 17.4863 13.1151 17.4863 13.3984C17.4863 13.6818 17.3905 13.9193 17.1988 14.1109C17.0072 14.3026 16.7697 14.3984 16.4863 14.3984ZM12.4863 18.3984C12.203 18.3984 11.9655 18.3026 11.7738 18.1109C11.5822 17.9193 11.4863 17.6818 11.4863 17.3984C11.4863 17.1151 11.5822 16.8776 11.7738 16.6859C11.9655 16.4943 12.203 16.3984 12.4863 16.3984C12.7697 16.3984 13.0072 16.4943 13.1988 16.6859C13.3905 16.8776 13.4863 17.1151 13.4863 17.3984C13.4863 17.6818 13.3905 17.9193 13.1988 18.1109C13.0072 18.3026 12.7697 18.3984 12.4863 18.3984ZM8.48633 18.3984C8.20299 18.3984 7.96549 18.3026 7.77383 18.1109C7.58216 17.9193 7.48633 17.6818 7.48633 17.3984C7.48633 17.1151 7.58216 16.8776 7.77383 16.6859C7.96549 16.4943 8.20299 16.3984 8.48633 16.3984C8.76966 16.3984 9.00716 16.4943 9.19883 16.6859C9.39049 16.8776 9.48633 17.1151 9.48633 17.3984C9.48633 17.6818 9.39049 17.9193 9.19883 18.1109C9.00716 18.3026 8.76966 18.3984 8.48633 18.3984ZM16.4863 18.3984C16.203 18.3984 15.9655 18.3026 15.7738 18.1109C15.5822 17.9193 15.4863 17.6818 15.4863 17.3984C15.4863 17.1151 15.5822 16.8776 15.7738 16.6859C15.9655 16.4943 16.203 16.3984 16.4863 16.3984C16.7697 16.3984 17.0072 16.4943 17.1988 16.6859C17.3905 16.8776 17.4863 17.1151 17.4863 17.3984C17.4863 17.6818 17.3905 17.9193 17.1988 18.1109C17.0072 18.3026 16.7697 18.3984 16.4863 18.3984ZM5.48633 22.3984C4.93633 22.3984 4.46549 22.2026 4.07383 21.8109C3.68216 21.4193 3.48633 20.9484 3.48633 20.3984V6.39844C3.48633 5.84844 3.68216 5.3776 4.07383 4.98594C4.46549 4.59427 4.93633 4.39844 5.48633 4.39844H6.48633V2.39844H8.48633V4.39844H16.4863V2.39844H18.4863V4.39844H19.4863C20.0363 4.39844 20.5072 4.59427 20.8988 4.98594C21.2905 5.3776 21.4863 5.84844 21.4863 6.39844V20.3984C21.4863 20.9484 21.2905 21.4193 20.8988 21.8109C20.5072 22.2026 20.0363 22.3984 19.4863 22.3984H5.48633ZM5.48633 20.3984H19.4863V10.3984H5.48633V20.3984Z" fill="#808285"/>
</g>
</svg>
