<svg width="16" height="17"   viewBox="0 0 16 17" fill="none" xmlns="http://www.w3.org/2000/svg">
<mask id="mask0_834_26" style="mask-type:alpha" maskUnits="userSpaceOnUse" x="0" y="0" width="16" height="17">
<rect y="0.539062" width="16" height="16" fill="#D9D9D9"/>
</mask>
<g mask="url(#mask0_834_26)">
<path d="M3.00539 2.47266H12.9951C13.2985 2.47266 13.553 2.57821 13.7586 2.78932C13.9641 3.00043 14.0669 3.25215 14.0669 3.54446V10.3342C14.0669 10.6265 13.9641 10.8782 13.7586 11.0893C13.553 11.3004 13.2985 11.406 12.9951 11.406H10.0412V14.3623L8.00024 13.2918L5.95924 14.3623V11.406H3.00539C2.71308 11.406 2.46137 11.3004 2.25026 11.0893C2.03915 10.8782 1.93359 10.6265 1.93359 10.3342V3.54446C1.93359 3.25215 2.03915 3.00043 2.25026 2.78932C2.46137 2.57821 2.71308 2.47266 3.00539 2.47266ZM2.80024 9.19827H13.2002V7.88034H2.80024V9.19827Z" fill="#0B0B0B" fill-opacity="0.7"/>
</g>
</svg>
