<svg width="20" height="21" viewBox="0 0 20 21" fill="none" xmlns="http://www.w3.org/2000/svg">
<path d="M4.37354 17.8827H15.6219C15.7802 17.883 15.9324 17.9433 16.048 18.0515C16.1635 18.1597 16.2338 18.3076 16.2444 18.4656C16.2551 18.6235 16.2055 18.7796 16.1056 18.9023C16.0056 19.0251 15.8629 19.1053 15.706 19.1269L15.6219 19.1327H4.37354C4.21406 19.1344 4.06 19.075 3.94289 18.9667C3.82579 18.8584 3.7545 18.7095 3.74364 18.5504C3.73278 18.3912 3.78315 18.234 3.88446 18.1108C3.98576 17.9876 4.13032 17.9078 4.28854 17.8877L4.37354 17.8827ZM9.90105 2.46775L9.99854 2.46191C10.2027 2.46194 10.3997 2.53688 10.5522 2.67251C10.7047 2.80814 10.8022 2.99504 10.826 3.19775L10.8319 3.29525V13.7869L13.5769 11.0427C13.7204 10.8993 13.9113 10.8131 14.1138 10.8003C14.3163 10.7876 14.5165 10.8492 14.6769 10.9736L14.7552 11.0436C14.8987 11.1871 14.9849 11.378 14.9976 11.5805C15.0104 11.783 14.9488 11.9832 14.8244 12.1436L14.7552 12.2219L10.591 16.3852C10.4477 16.5288 10.2568 16.6152 10.0543 16.6281C9.85175 16.641 9.65148 16.5795 9.49104 16.4552L9.41271 16.3861L5.24271 12.2219C5.09167 12.0723 5.00352 11.8706 4.99631 11.6581C4.9891 11.4456 5.06338 11.2384 5.20393 11.0789C5.34449 10.9194 5.5407 10.8197 5.7524 10.8001C5.9641 10.7805 6.17528 10.8426 6.34271 10.9736L6.42104 11.0427L9.16521 13.7827V3.29525C9.16524 3.09114 9.24017 2.89413 9.37581 2.7416C9.51144 2.58907 9.69834 2.49163 9.90105 2.46775Z" fill="#1B2027"/>
</svg>
