<svg width="16" height="17"  viewBox="0 0 16 17" fill="none" xmlns="http://www.w3.org/2000/svg">
<mask id="mask0_834_18" style="mask-type:alpha" maskUnits="userSpaceOnUse" x="0" y="0" width="16" height="17">
<rect y="0.539062" width="16" height="16" fill="#D9D9D9"/>
</mask>
<g mask="url(#mask0_834_18)">
<path d="M7.99985 8.02906C8.74772 8.02906 9.3787 7.76773 9.8928 7.24507C10.4069 6.72243 10.664 6.08717 10.664 5.33931V3.33931H5.33575V5.33931C5.33575 6.08717 5.5928 6.72243 6.1069 7.24507C6.621 7.76773 7.25199 8.02906 7.99985 8.02906ZM3.5332 14.606V13.7393H4.4691V11.7393C4.4691 11.0111 4.67167 10.3558 5.0768 9.77327C5.48194 9.1908 6.01784 8.77947 6.68452 8.53931C6.02895 8.29487 5.49583 7.88248 5.08514 7.30214C4.67445 6.7218 4.4691 6.06752 4.4691 5.33931V3.33931H3.5332V2.47266H12.4665V3.33931H11.5306V5.33931C11.5306 6.06752 11.3253 6.7218 10.9146 7.30214C10.5039 7.88248 9.97075 8.29487 9.31519 8.53931C9.98186 8.77947 10.5178 9.1908 10.9229 9.77327C11.328 10.3558 11.5306 11.0111 11.5306 11.7393V13.7393H12.4665V14.606H3.5332Z" fill="#0B0B0B" fill-opacity="0.7"/>
</g>
</svg>
