<svg width="16" height="17"  viewBox="0 0 16 17" fill="none" xmlns="http://www.w3.org/2000/svg">
<mask id="mask0_834_34" style="mask-type:alpha" maskUnits="userSpaceOnUse" x="0" y="0" width="16" height="17">
<rect y="0.539062" width="16" height="16" fill="#D9D9D9"/>
</mask>
<g mask="url(#mask0_834_34)">
<path d="M8.00024 14.607C7.16948 14.607 6.38551 14.4489 5.64833 14.1326C4.91115 13.8164 4.26585 13.3816 3.71244 12.8281C3.15902 12.2747 2.72419 11.6294 2.40796 10.8923C2.09172 10.1551 1.93359 9.37112 1.93359 8.54035C1.93359 7.3942 2.22889 6.344 2.81949 5.38973C3.41008 4.43547 4.20751 3.69252 5.21178 3.1609C5.22717 3.32072 5.25558 3.47392 5.29703 3.6205C5.33848 3.76708 5.3763 3.9019 5.41049 4.02497C4.62075 4.52924 3.98827 5.17604 3.51306 5.96535C3.03785 6.75467 2.80024 7.613 2.80024 8.54035C2.80024 9.98479 3.3058 11.2126 4.31691 12.2237C5.32802 13.2348 6.5558 13.7403 8.00024 13.7403C9.44469 13.7403 10.6725 13.2348 11.6836 12.2237C12.6947 11.2126 13.2002 9.98479 13.2002 8.54035C13.2002 7.613 12.9644 6.75189 12.4926 5.95702C12.0208 5.16215 11.3844 4.51813 10.5836 4.02497C10.6178 3.90617 10.6539 3.77455 10.6919 3.63011C10.7299 3.48567 10.7601 3.32926 10.7823 3.1609C11.7977 3.68141 12.599 4.42264 13.1861 5.3846C13.7733 6.34655 14.0669 7.39847 14.0669 8.54035C14.0669 9.37112 13.9088 10.1551 13.5925 10.8923C13.2763 11.6294 12.8415 12.2747 12.288 12.8281C11.7346 13.3816 11.0921 13.8164 10.3605 14.1326C9.62887 14.4489 8.84212 14.607 8.00024 14.607ZM8.00024 12.207C6.98315 12.207 6.11778 11.8502 5.40411 11.1365C4.69043 10.4228 4.33359 9.55744 4.33359 8.54035C4.33359 7.95233 4.46907 7.39849 4.74001 6.87883C5.01094 6.35918 5.38273 5.92755 5.85538 5.58397C5.9135 5.76517 5.96285 5.93183 6.00344 6.08397C6.04404 6.2361 6.08272 6.36729 6.11948 6.47753C5.85195 6.75788 5.63187 7.07433 5.45921 7.4269C5.28657 7.77945 5.20024 8.1506 5.20024 8.54035C5.20024 9.31813 5.47247 9.97924 6.01691 10.5237C6.56136 11.0681 7.22247 11.3403 8.00024 11.3403C8.77802 11.3403 9.43913 11.0681 9.98358 10.5237C10.528 9.97924 10.8002 9.31813 10.8002 8.54035C10.8002 8.14634 10.7101 7.77519 10.5297 7.4269C10.3494 7.0786 10.1255 6.76214 9.85794 6.47753C9.88786 6.35873 9.91584 6.26173 9.94191 6.18653C9.96798 6.11133 10.0357 5.9139 10.1451 5.59423C10.622 5.93781 10.9949 6.36772 11.2637 6.88395C11.5325 7.40019 11.6669 7.95233 11.6669 8.54035C11.6669 9.55744 11.3101 10.4228 10.5964 11.1365C9.88271 11.8502 9.01733 12.207 8.00024 12.207ZM7.49513 5.97367C7.28402 5.31128 7.07654 4.67965 6.87269 4.0788C6.66885 3.47795 6.56693 2.8318 6.56693 2.14035C6.56693 1.74292 6.70645 1.40467 6.98551 1.12562C7.26457 0.84656 7.60281 0.707031 8.00024 0.707031C8.39768 0.707031 8.73592 0.84656 9.01498 1.12562C9.29403 1.40467 9.43356 1.74292 9.43356 2.14035C9.43356 2.8318 9.33442 3.47795 9.13613 4.0788C8.93784 4.67965 8.72758 5.31128 8.50536 5.97367H7.49513ZM8.00024 9.77367C7.65409 9.77367 7.362 9.65465 7.12398 9.41662C6.88594 9.17859 6.76693 8.8865 6.76693 8.54035C6.76693 8.19419 6.88594 7.9021 7.12398 7.66408C7.362 7.42605 7.65409 7.30703 8.00024 7.30703C8.3464 7.30703 8.63849 7.42605 8.87651 7.66408C9.11454 7.9021 9.23356 8.19419 9.23356 8.54035C9.23356 8.8865 9.11454 9.17859 8.87651 9.41662C8.63849 9.65465 8.3464 9.77367 8.00024 9.77367Z" fill="#0B0B0B" fill-opacity="0.7"/>
</g>
</svg>
