<svg width="21" height="16" viewBox="0 0 21 16" fill="none" xmlns="http://www.w3.org/2000/svg">
<path d="M15.6182 0C13.8454 0 11.9363 0.376471 10.6182 1.41176C9.29998 0.376471 7.39089 0 5.61816 0C3.84544 0 1.93635 0.376471 0.618164 1.41176V15.2C0.618164 15.8118 1.2818 15.6235 1.29998 15.6235C2.52726 15.0118 4.29998 14.5882 5.61816 14.5882C7.39089 14.5882 9.29998 14.9647 10.6182 16C11.8454 15.2 14.0727 14.5882 15.6182 14.5882C17.1182 14.5882 18.6636 14.8706 19.9363 15.5765C20.3091 15.7741 20.6182 15.3976 20.6182 15.1529V1.41176C19.2636 0.357647 17.3182 0 15.6182 0ZM18.8 13.1765C17.8 12.8471 16.7091 12.7059 15.6182 12.7059C14.0727 12.7059 11.8454 13.3176 10.6182 14.1176V3.29412C11.8454 2.49412 14.0727 1.88235 15.6182 1.88235C16.7091 1.88235 17.8 2.02353 18.8 2.35294V13.1765Z" fill="#808285"/>
</svg>
