<svg width="21" height="20" viewBox="0 0 21 20" fill="none" xmlns="http://www.w3.org/2000/svg">
<path d="M0.618164 20V4.44444H5.06261V0H16.1737V8.88889H20.6182V20H11.7293V15.5556H9.50705V20H0.618164ZM2.84039 17.7778H5.06261V15.5556H2.84039V17.7778ZM2.84039 13.3333H5.06261V11.1111H2.84039V13.3333ZM2.84039 8.88889H5.06261V6.66667H2.84039V8.88889ZM7.28483 13.3333H9.50705V11.1111H7.28483V13.3333ZM7.28483 8.88889H9.50705V6.66667H7.28483V8.88889ZM7.28483 4.44444H9.50705V2.22222H7.28483V4.44444ZM11.7293 13.3333H13.9515V11.1111H11.7293V13.3333ZM11.7293 8.88889H13.9515V6.66667H11.7293V8.88889ZM11.7293 4.44444H13.9515V2.22222H11.7293V4.44444ZM16.1737 17.7778H18.3959V15.5556H16.1737V17.7778ZM16.1737 13.3333H18.3959V11.1111H16.1737V13.3333Z" fill="#808285"/>
</svg>
