<svg width="24" height="25" viewBox="0 0 24 25" fill="none" xmlns="http://www.w3.org/2000/svg">
<path d="M6.08577 24.0313C4.65848 23.9664 3.88314 23.7289 3.36743 23.5278C2.6841 23.2617 2.19693 22.945 1.68407 22.4329C1.17122 21.9207 0.853806 21.4335 0.589176 20.7502C0.388029 20.2345 0.150504 19.4592 0.0855946 18.0319C0.0142658 16.489 0 16.0261 0 12.1173C0 8.20846 0.0156923 7.74625 0.0848813 6.20198C0.14979 4.77469 0.388742 4.00078 0.588463 3.48364C0.854519 2.80031 1.17193 2.31314 1.68336 1.79957C2.1955 1.28743 2.68268 0.969303 3.36672 0.704674C3.88243 0.503526 4.65777 0.266001 6.08506 0.201092C7.62861 0.130477 8.09225 0.116211 11.9996 0.116211C15.9085 0.116211 16.3707 0.131903 17.9149 0.201092C19.3422 0.266001 20.1161 0.504953 20.6333 0.704674C21.3166 0.969303 21.8038 1.28743 22.3166 1.79957C22.8295 2.31171 23.1455 2.7996 23.4115 3.48293C23.6127 3.99864 23.8502 4.77398 23.9151 6.20127C23.9857 7.74554 24 8.20775 24 12.1166C24 16.024 23.9857 16.4876 23.9151 18.0319C23.8502 19.4592 23.6113 20.2345 23.4115 20.7502C23.1455 21.4335 22.8288 21.9207 22.3166 22.4329C21.8045 22.945 21.3166 23.2617 20.6333 23.5278C20.1176 23.7289 19.3422 23.9664 17.9149 24.0313C16.3721 24.1019 15.9085 24.1162 11.9996 24.1162C8.09225 24.1162 7.62862 24.1027 6.08577 24.0313Z" fill="url(#paint0_radial_468_12379)"/>
<path d="M9.27709 12.0312C9.27709 10.5742 10.4579 9.39267 11.915 9.39267C13.3721 9.39267 14.5535 10.5742 14.5535 12.0312C14.5535 13.4883 13.3721 14.6698 11.915 14.6698C10.4579 14.6698 9.27709 13.4883 9.27709 12.0312ZM7.85074 12.0312C7.85074 14.2759 9.67031 16.0955 11.915 16.0955C14.1597 16.0955 15.9793 14.2759 15.9793 12.0312C15.9793 9.78652 14.1597 7.96695 11.915 7.96695C9.67031 7.96695 7.85081 9.78639 7.85081 12.0312M15.1904 7.8058C15.1903 7.99366 15.246 8.17731 15.3503 8.33355C15.4546 8.48978 15.6029 8.61158 15.7764 8.68354C15.9499 8.7555 16.1409 8.77438 16.3251 8.73781C16.5094 8.70123 16.6787 8.61084 16.8116 8.47806C16.9444 8.34528 17.035 8.17608 17.0717 7.99185C17.1084 7.80762 17.0897 7.61664 17.0179 7.44306C16.946 7.26948 16.8244 7.12109 16.6682 7.01667C16.5121 6.91224 16.3285 6.85646 16.1406 6.85638H16.1402C15.8884 6.8565 15.647 6.95655 15.4689 7.13457C15.2908 7.31258 15.1906 7.554 15.1904 7.8058ZM8.71734 18.4739C7.94566 18.4388 7.52623 18.3102 7.24749 18.2016C6.87796 18.0578 6.61429 17.8864 6.33708 17.6096C6.05986 17.3327 5.88827 17.0693 5.74504 16.6998C5.63638 16.4212 5.50784 16.0016 5.47276 15.2299C5.43439 14.3956 5.42673 14.145 5.42673 12.0313C5.42673 9.91765 5.43502 9.66773 5.47276 8.83273C5.5079 8.06105 5.63739 7.64231 5.74504 7.36288C5.8889 6.99335 6.06024 6.72968 6.33708 6.45247C6.61391 6.17525 6.87732 6.00365 7.24749 5.86042C7.5261 5.75177 7.94566 5.62323 8.71734 5.58815C9.55164 5.54978 9.80227 5.54211 11.915 5.54211C14.0277 5.54211 14.2786 5.55028 15.1136 5.58827C15.8853 5.62342 16.304 5.75291 16.5835 5.86055C16.953 6.00378 17.2167 6.17576 17.4939 6.45259C17.7711 6.72943 17.942 6.99347 18.0859 7.36301C18.1946 7.64162 18.3231 8.06117 18.3582 8.83285C18.3966 9.66786 18.4042 9.91778 18.4042 12.0315C18.4042 14.1451 18.3966 14.3951 18.3582 15.2301C18.323 16.0018 18.1939 16.4212 18.0859 16.6999C17.942 17.0695 17.7707 17.3331 17.4939 17.6097C17.217 17.8863 16.953 18.0579 16.5835 18.2017C16.3048 18.3104 15.8853 18.4389 15.1136 18.474C14.2793 18.5124 14.0287 18.5201 11.915 18.5201C9.80132 18.5201 9.55139 18.5124 8.71734 18.474M8.6518 4.16414C7.8092 4.20252 7.23344 4.33612 6.73061 4.53178C6.21018 4.73383 5.76903 5.00491 5.32852 5.44473C4.888 5.88455 4.61762 6.32576 4.41557 6.84682C4.21991 7.34996 4.08631 7.92542 4.04793 8.76801C4.00893 9.61194 4 9.88175 4 12.0312C4 14.1807 4.00893 14.4505 4.04793 15.2944C4.08631 16.1371 4.21991 16.7125 4.41557 17.2156C4.61762 17.736 4.88806 18.1781 5.32852 18.6177C5.76897 19.0573 6.20955 19.328 6.73061 19.5306C7.23439 19.7263 7.8092 19.8599 8.6518 19.8983C9.49618 19.9366 9.76554 19.9462 11.915 19.9462C14.0645 19.9462 14.3343 19.9373 15.1782 19.8983C16.0209 19.8599 16.5962 19.7263 17.0994 19.5306C17.6198 19.328 18.061 19.0575 18.5015 18.6177C18.942 18.1779 19.2118 17.736 19.4144 17.2156C19.6101 16.7125 19.7443 16.137 19.7821 15.2944C19.8204 14.4498 19.8294 14.1807 19.8294 12.0312C19.8294 9.88175 19.8204 9.61194 19.7821 8.76801C19.7437 7.92535 19.6101 7.34965 19.4144 6.84682C19.2118 6.3264 18.9413 5.88525 18.5015 5.44473C18.0617 5.00421 17.6198 4.73383 17.1 4.53178C16.5962 4.33612 16.0208 4.20188 15.1788 4.16414C14.3348 4.12558 14.0651 4.11621 11.916 4.11621C9.76681 4.11621 9.49649 4.12514 8.65212 4.16414" fill="white"/>
<defs>
<radialGradient id="paint0_radial_468_12379" cx="0" cy="0" r="1" gradientUnits="userSpaceOnUse" gradientTransform="translate(1.55326 23.5904) scale(30.4711)">
<stop offset="0.09" stop-color="#FA8F21"/>
<stop offset="0.78" stop-color="#D82D7E"/>
</radialGradient>
</defs>
</svg>
