<svg width="24" height="25" viewBox="0 0 24 25" fill="none" xmlns="http://www.w3.org/2000/svg">
<rect y="0.116211" width="24" height="24" rx="12" fill="#0A66C2"/>
<g clip-path="url(#clip0_468_12381)">
<path d="M5 6.98374C5 6.53328 5.15766 6.16166 5.47297 5.86888C5.78828 5.57608 6.1982 5.42969 6.7027 5.42969C7.1982 5.42969 7.59909 5.57382 7.90541 5.86212C8.22072 6.15942 8.37838 6.5468 8.37838 7.02428C8.37838 7.45671 8.22523 7.81707 7.91892 8.10536C7.60361 8.40266 7.18919 8.55131 6.67568 8.55131H6.66216C6.16666 8.55131 5.76577 8.40266 5.45946 8.10536C5.15315 7.80807 5 7.43419 5 6.98374ZM5.17568 18.8081V9.78104H8.17568V18.8081H5.17568ZM9.83784 18.8081H12.8378V13.7675C12.8378 13.4522 12.8739 13.209 12.9459 13.0378C13.0721 12.7315 13.2635 12.4725 13.5203 12.2608C13.777 12.0491 14.0991 11.9432 14.4865 11.9432C15.4955 11.9432 16 12.6234 16 13.9837V18.8081H19V13.6324C19 12.2991 18.6847 11.2878 18.0541 10.5986C17.4234 9.90942 16.5901 9.56482 15.5541 9.56482C14.3919 9.56482 13.4865 10.0648 12.8378 11.0648V11.0918H12.8243L12.8378 11.0648V9.78104H9.83784C9.85585 10.0693 9.86486 10.9657 9.86486 12.4702C9.86486 13.9747 9.85585 16.0873 9.83784 18.8081Z" fill="white"/>
</g>
<defs>
<clipPath id="clip0_468_12381">
<rect x="5" y="5.11621" width="14" height="14" fill="white"/>
</clipPath>
</defs>
</svg>
