<svg xmlns="http://www.w3.org/2000/svg" width="62" height="62" fill="none" xmlns:v="https://vecta.io/nano"><rect width="62" height="62.001" rx="11.923" fill="#181b27"/><path d="M41.5 29.833h-1.248c-.26-2.053-1.196-3.962-2.66-5.425s-3.372-2.399-5.425-2.659V20.5c0-.309-.123-.606-.342-.825s-.515-.342-.825-.342-.606.123-.825.342-.342.516-.342.825v1.248c-2.053.26-3.962 1.196-5.425 2.659s-2.399 3.372-2.66 5.426H20.5c-.309 0-.606.123-.825.342s-.342.516-.342.825.123.606.342.825.515.342.825.342h1.248c.26 2.053 1.196 3.962 2.66 5.426s3.372 2.399 5.426 2.66V41.5c0 .309.123.606.342.825s.515.342.825.342.606-.123.825-.342.342-.515.342-.825v-1.248c2.053-.26 3.962-1.196 5.426-2.66s2.399-3.372 2.66-5.425H41.5c.309 0 .606-.123.825-.342s.342-.515.342-.825-.123-.606-.342-.825-.516-.342-.825-.342zm-9.333 8.062v-2.228c0-.309-.123-.606-.342-.825S31.31 34.5 31 34.5s-.606.123-.825.342-.342.516-.342.825v2.228a7 7 0 0 1-5.728-5.728h2.228c.309 0 .606-.123.825-.342s.342-.515.342-.825-.123-.606-.342-.825-.515-.342-.825-.342h-2.228a7 7 0 0 1 5.728-5.728v2.228c0 .309.123.606.342.825s.515.342.825.342.606-.123.825-.342.342-.516.342-.825v-2.228a7 7 0 0 1 5.728 5.728h-2.228c-.309 0-.606.123-.825.342s-.342.516-.342.825.123.606.342.825.516.342.825.342h2.228a7 7 0 0 1-5.728 5.728z" fill="#fff"/></svg>