<svg xmlns="http://www.w3.org/2000/svg" width="62" height="62" fill="none" xmlns:v="https://vecta.io/nano"><rect width="62" height="62.001" rx="11.923" fill="#181b27"/><g clip-path="url(#A)" fill="#fff"><path d="M31 38.875c-3.732 0-7.263-1.581-9.946-4.452-.33-.353-.311-.907.042-1.236s.907-.311 1.237.042c2.348 2.513 5.425 3.896 8.667 3.896 4.168 0 8.005-2.279 10.36-6.125-2.354-3.846-6.192-6.125-10.36-6.125-4.321 0-8.288 2.451-10.614 6.556-.238.421-.773.57-1.193.33s-.568-.772-.33-1.193c2.64-4.661 7.178-7.444 12.136-7.444s9.496 2.782 12.136 7.444c.151.268.151.595 0 .862-2.64 4.661-7.177 7.445-12.136 7.445zm0-3.5A4.38 4.38 0 0 1 26.625 31 4.38 4.38 0 0 1 31 26.625 4.38 4.38 0 0 1 35.375 31 4.38 4.38 0 0 1 31 35.375zm0-7A2.63 2.63 0 0 0 28.375 31 2.63 2.63 0 0 0 31 33.625 2.63 2.63 0 0 0 33.625 31 2.63 2.63 0 0 0 31 28.375z"/></g><defs><clipPath id="A"><path fill="#fff" transform="translate(17 17)" d="M0 0h28v28H0z"/></clipPath></defs></svg>