<svg width="163" height="31" viewBox="0 0 163 31" fill="none" xmlns="http://www.w3.org/2000/svg">
<mask id="mask0_445_8695" style="mask-type:luminance" maskUnits="userSpaceOnUse" x="39" y="2" width="124" height="29">
<path d="M39.5898 2.53516H162.327V30.0277H39.5898V2.53516Z" fill="white"/>
</mask>
<g mask="url(#mask0_445_8695)">
<mask id="mask1_445_8695" style="mask-type:luminance" maskUnits="userSpaceOnUse" x="39" y="2" width="124" height="29">
<path d="M39.5898 2.53516H162.327V30.0277H39.5898V2.53516Z" fill="white"/>
</mask>
<g mask="url(#mask1_445_8695)">
<path d="M105.001 7.92585H107.433V22.8176H105.001V7.92585ZM96.1257 7.58893C94.5479 7.58893 93.1016 8.128 91.9183 9.13875V7.92585H89.4859V22.8176H91.9183V14.3947C91.9183 11.9689 93.8248 10.0821 96.1257 10.0821C98.4266 10.0821 100.333 12.0362 100.333 14.3947V22.8176H102.765V14.3947C102.765 10.6212 99.8071 7.58893 96.1257 7.58893ZM84.6211 7.85846H87.0535V22.2112C86.9878 26.4563 83.635 29.8929 79.4934 29.9603C76.2064 30.0277 73.1824 27.804 72.262 24.5696H74.8916C75.7462 26.389 77.5212 27.5345 79.4934 27.4671C82.3202 27.3997 84.5554 25.0413 84.6869 22.1438V20.9309C81.5971 23.8284 76.7981 23.6936 73.9712 20.5266C71.1444 17.3596 71.2759 12.4405 74.3657 9.54305C77.2583 6.78033 81.7943 6.78033 84.6869 9.54305L84.6211 7.85846ZM84.6211 15.338C84.6211 12.4405 82.3202 10.0147 79.4934 10.0147C76.6666 10.0147 74.2999 12.3732 74.2999 15.2707C74.2999 18.1682 76.6008 20.594 79.4934 20.594C82.3202 20.594 84.6211 18.2355 84.6211 15.338ZM47.1493 10.0147C49.1215 10.0147 50.9622 11.2276 51.8168 13.047H54.3807C53.1974 8.9366 48.9243 6.57817 44.9141 7.85846C40.904 9.07137 38.603 13.4513 39.8521 17.5617C41.1012 21.6721 45.3085 24.0305 49.3187 22.7502C51.7511 22.009 53.6575 20.0549 54.3807 17.5617H51.8168C50.6335 20.1897 47.5437 21.3352 44.9798 20.1223C42.416 18.9094 41.2984 15.7423 42.4817 13.1144C43.3363 11.2276 45.1113 10.0147 47.1493 10.0147ZM70.75 15.338C70.75 19.6506 67.3315 23.0872 63.1899 23.0872C58.9825 23.0872 55.6297 19.5832 55.6297 15.338C55.6297 11.0929 58.9168 7.58893 63.1241 7.58893C67.3315 7.58893 70.75 11.0255 70.75 15.338ZM68.3176 15.338C68.3176 12.4405 66.0167 10.0147 63.1899 10.0147C60.363 10.0147 57.9964 12.3732 57.9964 15.2707C57.9964 18.1682 60.2973 20.594 63.1241 20.594C66.0167 20.594 68.3176 18.2355 68.3176 15.338ZM147.534 7.58893C145.957 7.58893 144.51 8.128 143.327 9.13875V7.92585H140.895V22.8176H143.327V14.3947C143.327 11.9689 145.234 10.0147 147.534 10.0147C149.901 10.0147 151.808 11.9689 151.808 14.3273V22.7502H154.24V14.3947C154.174 10.6212 151.216 7.58893 147.534 7.58893ZM136.03 7.92585H138.462V22.8176H136.03V21.0657C132.94 23.9632 128.141 23.8284 125.314 20.6614C122.487 17.4943 122.619 12.5753 125.709 9.67782C127.089 8.33015 128.93 7.58893 130.836 7.58893C132.743 7.58893 134.584 8.33015 136.03 9.67782V7.92585ZM136.03 15.338C136.03 12.4405 133.729 10.0821 130.836 10.0821C128.01 10.0821 125.709 12.4405 125.709 15.4054C125.709 18.3029 128.01 20.6614 130.836 20.6614C133.729 20.594 136.03 18.2355 136.03 15.338ZM162.26 10.3517V7.85846H158.645V3.81545H156.212V17.8312C156.212 20.594 158.382 22.8176 161.077 22.8176H162.26V20.3244H161.077C159.762 20.3244 158.645 19.1789 158.645 17.8312V10.3517H162.26ZM106.184 2.53516C105.264 2.53516 104.606 3.27638 104.606 4.15236C104.606 5.09573 105.329 5.76957 106.184 5.76957C107.104 5.76957 107.762 5.02835 107.762 4.15236C107.827 3.27638 107.104 2.53516 106.184 2.53516C106.25 2.53516 106.25 2.53516 106.184 2.53516ZM121.962 7.92585H109.865V10.419H118.806L109.865 20.3244V22.8176H121.962V20.3244H112.955L121.896 10.419L121.962 7.92585Z" fill="#1b2027048"/>
</g>
</g>
<mask id="mask2_445_8695" style="mask-type:luminance" maskUnits="userSpaceOnUse" x="0" y="0" width="35" height="31">
<path d="M0.671875 0.714844H34.9225V30.3636H0.671875V0.714844Z" fill="white"/>
</mask>
<g mask="url(#mask2_445_8695)">
<mask id="mask3_445_8695" style="mask-type:luminance" maskUnits="userSpaceOnUse" x="0" y="15" width="22" height="16">
<path d="M0.671875 15.5391L10.7301 30.3635L21.1171 23.962L15.2662 15.5391H0.671875Z" fill="white"/>
</mask>
<g mask="url(#mask3_445_8695)">
<path d="M0.671875 15.5391H21.1171V30.3635H0.671875V15.5391Z" fill="url(#paint0_linear_445_8695)"/>
</g>
<mask id="mask4_445_8695" style="mask-type:luminance" maskUnits="userSpaceOnUse" x="10" y="15" width="25" height="16">
<path d="M10.7305 30.3635H25.0618L34.9228 15.5391L10.7305 30.3635Z" fill="white"/>
</mask>
<g mask="url(#mask4_445_8695)">
<path d="M10.7305 15.5391H34.9228V30.3635H10.7305V15.5391Z" fill="url(#paint1_linear_445_8695)"/>
</g>
<mask id="mask5_445_8695" style="mask-type:luminance" maskUnits="userSpaceOnUse" x="0" y="0" width="22" height="16">
<path d="M10.7301 0.714844L0.671875 15.5392H15.2662L21.1171 7.11629L10.7301 0.714844Z" fill="white"/>
</mask>
<g mask="url(#mask5_445_8695)">
<path d="M0.671875 0.714844H21.1171V15.5392H0.671875V0.714844Z" fill="url(#paint2_linear_445_8695)"/>
</g>
<mask id="mask6_445_8695" style="mask-type:luminance" maskUnits="userSpaceOnUse" x="10" y="0" width="25" height="16">
<path d="M10.7305 0.714844L34.9228 15.5392L25.0618 0.714844H10.7305Z" fill="white"/>
</mask>
<g mask="url(#mask6_445_8695)">
<path d="M10.7305 0.714844H34.9228V15.5392H10.7305V0.714844Z" fill="url(#paint3_linear_445_8695)"/>
</g>
</g>
<defs>
<linearGradient id="paint0_linear_445_8695" x1="0.676705" y1="22.9346" x2="21.1262" y2="22.9346" gradientUnits="userSpaceOnUse">
<stop stop-color="#3D54CE"/>
<stop offset="1" stop-color="#35CACF"/>
</linearGradient>
<linearGradient id="paint1_linear_445_8695" x1="10.7256" y1="22.9346" x2="34.9493" y2="22.9346" gradientUnits="userSpaceOnUse">
<stop stop-color="#13457D"/>
<stop offset="1" stop-color="#279698"/>
</linearGradient>
<linearGradient id="paint2_linear_445_8695" x1="0.668556" y1="8.11588" x2="21.1345" y2="8.11588" gradientUnits="userSpaceOnUse">
<stop stop-color="#090086"/>
<stop offset="1" stop-color="#2F96A9"/>
</linearGradient>
<linearGradient id="paint3_linear_445_8695" x1="10.7256" y1="8.11588" x2="34.9493" y2="8.11588" gradientUnits="userSpaceOnUse">
<stop stop-color="#3B62CA"/>
<stop offset="1" stop-color="#93DFE3"/>
</linearGradient>
</defs>
</svg>
