<svg width="30" height="30" viewBox="0 0 30 30" fill="none" xmlns="http://www.w3.org/2000/svg">
<g opacity="0.2">
<path fill-rule="evenodd" clip-rule="evenodd" d="M7.5 23.2766C11.2082 22.8183 13.75 20.2664 13.75 15.8516V7.10156C13.75 6.41121 13.1904 5.85156 12.5 5.85156H5C4.30965 5.85156 3.75 6.41121 3.75 7.10156V14.6016C3.75 15.2919 4.30965 15.8516 5 15.8516H10C10 16.2501 9.97178 16.6767 9.89734 17.1016C9.62149 18.6762 8.71094 20.2266 6.25 20.2266V23.3516C6.67929 23.3516 7.09655 23.3264 7.5 23.2766Z" fill="#1B2027"/>
<path fill-rule="evenodd" clip-rule="evenodd" d="M20 23.2766C23.7082 22.8183 26.25 20.2664 26.25 15.8516V7.10156C26.25 6.41121 25.6904 5.85156 25 5.85156H17.5C16.8097 5.85156 16.25 6.41121 16.25 7.10156V14.6016C16.25 15.2919 16.8097 15.8516 17.5 15.8516H22.5C22.5 16.2501 22.4718 16.6767 22.3973 17.1016C22.1215 18.6762 21.2109 20.2266 18.75 20.2266V23.3516C19.1793 23.3516 19.5965 23.3264 20 23.2766Z" fill="#1B2027"/>
</g>
</svg>
