<svg width="43" height="43" viewBox="0 0 43 43" fill="none" xmlns="http://www.w3.org/2000/svg">
<g id="Layer_2">
<g id="Group">
<path id="Vector" d="M37.1937 31.0083H5.09795C3.27702 31.0083 1.80078 29.5321 1.80078 27.7111V6.97099C1.80078 5.15006 3.27693 3.67383 5.09795 3.67383H37.1937C39.0146 3.67383 40.4908 5.14998 40.4908 6.97099V27.7111C40.4908 29.5321 39.0147 31.0083 37.1937 31.0083Z" stroke="#474747" stroke-width="0.7" stroke-miterlimit="10" stroke-linecap="round" stroke-linejoin="round"/>
<g id="Group_2">
<path id="Vector_2" d="M15.4844 38.5062C16.5306 38.5062 17.3787 37.6581 17.3787 36.6119V31.0898" stroke="#474747" stroke-width="0.7" stroke-miterlimit="10" stroke-linecap="round" stroke-linejoin="round"/>
<path id="Vector_3" d="M26.8084 38.5062C25.7622 38.5062 24.9141 37.6581 24.9141 36.6119V31.0898" stroke="#474747" stroke-width="0.7" stroke-miterlimit="10" stroke-linecap="round" stroke-linejoin="round"/>
</g>
<path id="Vector_4" d="M12.373 38.5088H29.9181" stroke="#474747" stroke-width="0.7" stroke-miterlimit="10" stroke-linecap="round" stroke-linejoin="round"/>
<path id="Vector_5" d="M2.03906 26.0898H40.2523" stroke="#474747" stroke-width="0.7" stroke-miterlimit="10" stroke-linecap="round" stroke-linejoin="round"/>
<path id="Vector_6" d="M20.873 28.4912H21.4192" stroke="#474747" stroke-width="0.7" stroke-miterlimit="10" stroke-linecap="round" stroke-linejoin="round"/>
<g id="Group_3">
<path id="Union" fill-rule="evenodd" clip-rule="evenodd" d="M16.7357 14.1715L11.2891 11.8927L21.44 7.64551L31.5909 11.8927L25.6116 14.3944L26.447 14.4154V19.9699C26.447 19.9699 24.8502 21.6216 21.3456 21.6216C17.841 21.6216 16.2441 19.9699 16.2441 19.9699V14.1592L16.7357 14.1715Z" fill="#FBECD0"/>
<g id="Group_4">
<path id="Vector_7" d="M11.5991 12.2568L11.6285 15.6116C11.6285 15.6116 11.1159 16.3331 10.7744 16.8425C10.2521 17.6216 10.4051 18.581 10.8368 19.0928L11.7791 20.2101L12.7052 19.2661C13.2293 18.7319 13.2344 17.9691 12.7176 17.4064" stroke="#474747" stroke-width="0.7" stroke-miterlimit="10" stroke-linecap="round" stroke-linejoin="round"/>
</g>
<path id="Vector_8" d="M21.44 16.1398L11.2891 11.8927L21.44 7.64551L31.5909 11.8927L21.44 16.1398Z" stroke="#474747" stroke-width="0.7" stroke-miterlimit="10" stroke-linecap="round" stroke-linejoin="round"/>
<path id="Vector_9" d="M16.2422 14.1592V19.9699C16.2422 19.9699 17.839 21.6216 21.3436 21.6216C24.8482 21.6216 26.4451 19.9699 26.4451 19.9699V14.4154" stroke="#474747" stroke-width="0.7" stroke-miterlimit="10" stroke-linecap="round" stroke-linejoin="round"/>
</g>
</g>
</g>
</svg>
