<svg width="71" height="71" viewBox="0 0 71 71" fill="none" xmlns="http://www.w3.org/2000/svg">
<path fill-rule="evenodd" clip-rule="evenodd" d="M35.4904 13.167C42.5139 16.0728 41.5956 19.5359 41.5956 19.5359C41.5956 21.1064 40.4851 22.3796 39.109 22.3796H31.8755C30.5069 22.3796 29.3918 21.1064 29.3918 19.5359C29.3918 19.5359 28.4668 16.0728 35.4904 13.167Z" fill="white" stroke="#231F20" stroke-width="0.511811"/>
<path d="M35.4902 12.9167V9.91797" stroke="#231F20" stroke-width="0.511811" stroke-linecap="round" stroke-linejoin="round"/>
<path fill-rule="evenodd" clip-rule="evenodd" d="M28.3281 26.9862H43.1706V22.3799H28.3281V26.9862Z" fill="#EFB343" fill-opacity="0.3" stroke="#231F20" stroke-width="0.511811"/>
<path fill-rule="evenodd" clip-rule="evenodd" d="M22.1875 52.5756H26.7938V34.1504H22.1875V52.5756Z" fill="#EFB343" fill-opacity="0.3" stroke="#231F20" stroke-width="0.511811"/>
<path fill-rule="evenodd" clip-rule="evenodd" d="M24.745 29.0332C28.8426 30.6462 28.3063 32.5695 28.3063 32.5695C28.3063 33.4437 27.6565 34.1513 26.853 34.1513H22.6349C21.8373 34.1513 21.1875 33.4437 21.1875 32.5695C21.1875 32.5695 20.6482 30.6462 24.745 29.0332Z" stroke="#231F20" stroke-width="0.511811"/>
<path d="M24.8184 28.9825V27.1113" stroke="#231F20" stroke-width="0.511811" stroke-linecap="round" stroke-linejoin="round"/>
<path fill-rule="evenodd" clip-rule="evenodd" d="M44.1953 52.5756H48.8016V34.1504H44.1953V52.5756Z" fill="#EFB343" fill-opacity="0.3" stroke="#231F20" stroke-width="0.511811"/>
<path fill-rule="evenodd" clip-rule="evenodd" d="M46.7544 29.0332C50.8513 30.6462 50.314 32.5695 50.314 32.5695C50.314 33.4437 49.6661 34.1513 48.8626 34.1513H44.6443C44.5827 34.1513 44.522 34.1475 44.4623 34.1381C43.7498 34.0425 43.1949 33.3774 43.1949 32.5695C43.1949 32.5695 42.8954 31.4939 44.4584 30.2744C44.984 29.8648 45.7219 29.44 46.7544 29.0332Z" fill="white" stroke="#231F20" stroke-width="0.511811"/>
<path d="M46.707 28.9825V27.1113" stroke="#231F20" stroke-width="0.511811" stroke-linecap="round" stroke-linejoin="round"/>
<path d="M43.8248 36.8887H26.7637" stroke="#231F20" stroke-width="0.511811"/>
<path d="M43.8248 36.8887H26.7637" stroke="#231F20" stroke-width="0.511811"/>
<path fill-rule="evenodd" clip-rule="evenodd" d="M22.6992 56.1588H48.8016V52.5762H22.6992V56.1588Z" fill="#EFB343" fill-opacity="0.3" stroke="#231F20" stroke-width="0.511811"/>
<path fill-rule="evenodd" clip-rule="evenodd" d="M26.793 29.5369C26.793 27.3598 28.5848 26.9863 30.7937 26.9863H40.1909C42.4027 26.9863 44.1945 27.3598 44.1945 29.5369V30.0572H26.793V29.5369Z" fill="white" stroke="#231F20" stroke-width="0.511811"/>
<path fill-rule="evenodd" clip-rule="evenodd" d="M24.745 29.0332C25.7696 29.4362 26.5056 29.8591 27.0311 30.2659C28.6078 31.4872 28.3064 32.5695 28.3064 32.5695C28.3064 33.3756 27.7534 34.0406 27.039 34.1381C26.9773 34.1475 26.9166 34.1513 26.853 34.1513H22.6349C21.8373 34.1513 21.1875 33.4437 21.1875 32.5695C21.1875 32.5695 20.6482 30.6462 24.745 29.0332Z" fill="white" stroke="#231F20" stroke-width="0.511811"/>
<path fill-rule="evenodd" clip-rule="evenodd" d="M26.793 34.145C27.4911 34.0506 28.0334 33.4125 28.0334 32.64C28.0334 32.64 28.3356 31.6007 26.793 30.4288V30.0566H44.1945V30.4379C42.6672 31.607 42.9598 32.64 42.9598 32.64C42.9598 33.4143 43.5002 34.0524 44.1945 34.145V34.1577V36.7102H26.793V34.1577V34.145Z" fill="#EFB343" fill-opacity="0.3" stroke="#231F20" stroke-width="0.511811"/>
<path fill-rule="evenodd" clip-rule="evenodd" d="M26.793 52.5771H44.1945V36.7109H26.793V52.5771Z" stroke="#231F20" stroke-width="0.511811"/>
<path d="M32.6787 36.9668H27.0488V52.3211H32.6787V36.9668Z" fill="white" stroke="black" stroke-width="0.511811"/>
<path d="M38.3096 36.9668H32.6797V52.3211H38.3096V36.9668Z" fill="white" stroke="black" stroke-width="0.511811"/>
<path d="M43.9385 36.9668H38.3086V52.3211H43.9385V36.9668Z" fill="white" stroke="black" stroke-width="0.511811"/>
<path fill-rule="evenodd" clip-rule="evenodd" d="M26.793 52.5767H44.1945V49.5059H26.793V52.5767Z" fill="#EFB343" fill-opacity="0.3" stroke="#231F20" stroke-width="0.511811"/>
<path d="M31.9434 32.4648V34.8755" stroke="#231F20" stroke-width="0.511811"/>
<path d="M35.4414 32.4648V34.8755" stroke="#231F20" stroke-width="0.511811"/>
<path d="M39.4551 32.4648V34.8755" stroke="#231F20" stroke-width="0.511811"/>
<path d="M62.372 40.8047H48.8008" stroke="#231F20" stroke-width="0.511811"/>
<path fill-rule="evenodd" clip-rule="evenodd" d="M48.8008 40.8054H62.1079V36.7109H48.8008V40.8054Z" stroke="#231F20" stroke-width="0.511811"/>
<path fill-rule="evenodd" clip-rule="evenodd" d="M48.8008 52.5763H62.1079V40.8047H48.8008V52.5763Z" fill="white" stroke="#231F20" stroke-width="0.511811"/>
<path fill-rule="evenodd" clip-rule="evenodd" d="M62.1074 52.5756H66.7137V34.1504H62.1074V52.5756Z" fill="#EFB343" fill-opacity="0.3" stroke="#231F20" stroke-width="0.511811"/>
<path fill-rule="evenodd" clip-rule="evenodd" d="M64.6667 29.0332C60.5699 30.6462 61.1072 32.5695 61.1072 32.5695C61.1072 33.4437 61.7531 34.1513 62.5586 34.1513H66.7767C67.5763 34.1513 68.2261 33.4437 68.2261 32.5695C68.2261 32.5695 68.7634 30.6462 64.6667 29.0332Z" fill="white" stroke="#231F20" stroke-width="0.511811"/>
<path d="M64.5039 28.9825V27.1113" stroke="#231F20" stroke-width="0.511811" stroke-linecap="round" stroke-linejoin="round"/>
<path fill-rule="evenodd" clip-rule="evenodd" d="M57.5381 43.875H58.9987C59.5835 44.337 59.5489 44.9551 59.5489 44.9551V46.4341H56.9906V44.9551C56.9906 44.9551 56.956 44.337 57.5381 43.875Z" fill="#EFB343" fill-opacity="0.3" stroke="#231F20" stroke-width="0.511811"/>
<path fill-rule="evenodd" clip-rule="evenodd" d="M56.9902 52.5767H59.5493V49.5059H56.9902V52.5767Z" fill="#EFB343" fill-opacity="0.3" stroke="#231F20" stroke-width="0.511811"/>
<path fill-rule="evenodd" clip-rule="evenodd" d="M51.9077 43.875H53.3692C53.9544 44.337 53.918 44.9551 53.918 44.9551V46.4341H51.3598V44.9551C51.3598 44.9551 51.3234 44.337 51.9077 43.875Z" fill="#EFB343" fill-opacity="0.3" stroke="#231F20" stroke-width="0.511811"/>
<path fill-rule="evenodd" clip-rule="evenodd" d="M51.3594 52.5767H53.9184V49.5059H51.3594V52.5767Z" fill="#EFB343" fill-opacity="0.3" stroke="#231F20" stroke-width="0.511811"/>
<path fill-rule="evenodd" clip-rule="evenodd" d="M48.8008 40.8054H53.4071V36.7109H48.8008V40.8054Z" fill="white" stroke="#231F20" stroke-width="0.511811"/>
<path fill-rule="evenodd" clip-rule="evenodd" d="M53.4082 40.8054H57.5027V36.7109H53.4082V40.8054Z" fill="white" stroke="#231F20" stroke-width="0.511811"/>
<path fill-rule="evenodd" clip-rule="evenodd" d="M57.502 40.8054H62.1083V36.7109H57.502V40.8054Z" fill="white" stroke="#231F20" stroke-width="0.511811"/>
<path d="M8.88086 40.8047H22.452" stroke="#231F20" stroke-width="0.511811"/>
<path fill-rule="evenodd" clip-rule="evenodd" d="M8.88086 52.5763H22.1879V40.8047H8.88086V52.5763Z" fill="white" stroke="#231F20" stroke-width="0.511811"/>
<path fill-rule="evenodd" clip-rule="evenodd" d="M8.88086 40.8054H22.1879V36.7109H8.88086V40.8054Z" stroke="#231F20" stroke-width="0.511811"/>
<path fill-rule="evenodd" clip-rule="evenodd" d="M4.27344 52.5756H8.87974V34.1504H4.27344V52.5756Z" fill="#EFB343" fill-opacity="0.3" stroke="#231F20" stroke-width="0.511811"/>
<path fill-rule="evenodd" clip-rule="evenodd" d="M6.8336 29.0332C10.9293 30.6462 10.3922 32.5695 10.3922 32.5695C10.3922 33.4437 9.74639 34.1513 8.94114 34.1513H4.72214C3.92471 34.1513 3.27308 33.4437 3.27308 32.5695C3.27308 32.5695 2.73689 30.6462 6.8336 29.0332Z" fill="white" stroke="#231F20" stroke-width="0.511811"/>
<path d="M6.48633 28.9825V27.1113" stroke="#231F20" stroke-width="0.511811" stroke-linecap="round" stroke-linejoin="round"/>
<path fill-rule="evenodd" clip-rule="evenodd" d="M13.452 43.875H11.9886C11.4035 44.337 11.4399 44.9551 11.4399 44.9551V46.4341H13.9981V44.9551C13.9981 44.9551 14.0345 44.337 13.452 43.875Z" fill="#EFB343" fill-opacity="0.3" stroke="#231F20" stroke-width="0.511811"/>
<path fill-rule="evenodd" clip-rule="evenodd" d="M11.4395 52.5767H13.9985V49.5059H11.4395V52.5767Z" fill="#EFB343" fill-opacity="0.3" stroke="#231F20" stroke-width="0.511811"/>
<path fill-rule="evenodd" clip-rule="evenodd" d="M19.0791 43.875H17.6176C17.0324 44.337 17.0688 44.9551 17.0688 44.9551V46.4341H19.627V44.9551C19.627 44.9551 19.6634 44.337 19.0791 43.875Z" fill="#EFB343" fill-opacity="0.3" stroke="#231F20" stroke-width="0.511811"/>
<path fill-rule="evenodd" clip-rule="evenodd" d="M17.0684 52.5767H19.6274V49.5059H17.0684V52.5767Z" fill="#EFB343" fill-opacity="0.3" stroke="#231F20" stroke-width="0.511811"/>
<path fill-rule="evenodd" clip-rule="evenodd" d="M8.88086 40.8054H13.4872V36.7109H8.88086V40.8054Z" fill="white" stroke="#231F20" stroke-width="0.511811"/>
<path fill-rule="evenodd" clip-rule="evenodd" d="M13.4863 40.8054H17.5808V36.7109H13.4863V40.8054Z" fill="white" stroke="#231F20" stroke-width="0.511811"/>
<path fill-rule="evenodd" clip-rule="evenodd" d="M17.5801 40.8054H22.1864V36.7109H17.5801V40.8054Z" fill="white" stroke="#231F20" stroke-width="0.511811"/>
</svg>
