<svg width="71" height="71" viewBox="0 0 71 71" fill="none" xmlns="http://www.w3.org/2000/svg">
<path fill-rule="evenodd" clip-rule="evenodd" d="M2.75 58.0498H11.9207V40.25H2.75V58.0498Z" fill="white"/>
<path fill-rule="evenodd" clip-rule="evenodd" d="M2.75 57.4141H11.9207V40.25H2.75V57.4141Z" fill="white" stroke="#231F20" stroke-width="0.540011" stroke-linecap="round" stroke-linejoin="round"/>
<path fill-rule="evenodd" clip-rule="evenodd" d="M5.56949 32.6211L2.75 40.2496H11.9207L9.10311 32.6211H5.56949Z" fill="white"/>
<path fill-rule="evenodd" clip-rule="evenodd" d="M11.9207 40.2496H2.75L5.56949 32.6211H9.10311L11.9207 40.2496Z" stroke="#231F20" stroke-width="0.540011" stroke-linecap="round" stroke-linejoin="round"/>
<path fill-rule="evenodd" clip-rule="evenodd" d="M5.61523 32.621H9.05425V30.7138L8.95371 30.0781H5.61523V32.621Z" fill="#EFB343" fill-opacity="0.3"/>
<path fill-rule="evenodd" clip-rule="evenodd" d="M5.61523 32.621H9.05425V30.0781H5.61523V32.621Z" stroke="#231F20" stroke-width="0.540011" stroke-linecap="round" stroke-linejoin="round"/>
<path fill-rule="evenodd" clip-rule="evenodd" d="M2.75 49.7856H11.9207V40.25H2.75V49.7856Z" stroke="#231F20" stroke-width="0.540011" stroke-linecap="round" stroke-linejoin="round"/>
<path fill-rule="evenodd" clip-rule="evenodd" d="M5.53711 57.5205V53.5695C5.53711 52.83 6.33303 52.2324 7.31975 52.2324C8.30357 52.2324 9.10335 52.83 9.10335 53.5695V57.5205H5.53711Z" fill="#EFB343" fill-opacity="0.3"/>
<path fill-rule="evenodd" clip-rule="evenodd" d="M5.53711 57.4145V53.5427C5.53711 52.818 6.33303 52.2324 7.31975 52.2324C8.30357 52.2324 9.10335 52.818 9.10335 53.5427V57.4145H5.53711Z" stroke="#231F20" stroke-width="0.540011" stroke-linecap="round" stroke-linejoin="round"/>
<path fill-rule="evenodd" clip-rule="evenodd" d="M5.53711 49.7852V43.9685C5.53711 43.1899 6.33303 42.5605 7.31975 42.5605C8.30357 42.5605 9.10335 43.1899 9.10335 43.9685V49.7852H5.53711Z" fill="#EFB343" fill-opacity="0.3"/>
<path fill-rule="evenodd" clip-rule="evenodd" d="M5.53711 49.7852V43.9685C5.53711 43.1899 6.33303 42.5605 7.31975 42.5605C8.30357 42.5605 9.10335 43.1899 9.10335 43.9685V49.7852H5.53711Z" stroke="#231F20" stroke-width="0.540011" stroke-linecap="round" stroke-linejoin="round"/>
<path fill-rule="evenodd" clip-rule="evenodd" d="M30.5801 57.4134H39.8749V24.7168H30.5801V57.4134Z" fill="white" stroke="#231F20" stroke-width="0.540011" stroke-linecap="round" stroke-linejoin="round"/>
<path fill-rule="evenodd" clip-rule="evenodd" d="M39.8749 24.7171H30.5801L33.4342 15.5957H37.0178L39.8749 24.7171Z" fill="white"/>
<path fill-rule="evenodd" clip-rule="evenodd" d="M39.8749 24.7171H30.5801L33.4342 15.5957H37.0178L39.8749 24.7171Z" stroke="#231F20" stroke-width="0.540011" stroke-linecap="round" stroke-linejoin="round"/>
<path fill-rule="evenodd" clip-rule="evenodd" d="M33.4277 15.5959H37.0258V12.7744H33.4277V15.5959Z" fill="white"/>
<path fill-rule="evenodd" clip-rule="evenodd" d="M33.4277 15.5959H37.0258V12.7744H33.4277V15.5959Z" stroke="#231F20" stroke-width="0.540011" stroke-linecap="round" stroke-linejoin="round"/>
<path d="M35.2266 12.774V8.02734" stroke="#231F20" stroke-width="0.540011" stroke-linecap="round" stroke-linejoin="round"/>
<path fill-rule="evenodd" clip-rule="evenodd" d="M33.4277 57.3142H36.6143V52.3281H33.4277V57.3142Z" fill="#EFB343" fill-opacity="0.3" stroke="#231F20" stroke-width="0.540011"/>
<path fill-rule="evenodd" clip-rule="evenodd" d="M36.9824 39.7625V35.8147C36.9824 35.072 36.1884 34.4766 35.2036 34.4766C34.2217 34.4766 33.4277 35.072 33.4277 35.8147V39.7625H36.9824Z" fill="#EFB343" fill-opacity="0.3"/>
<path fill-rule="evenodd" clip-rule="evenodd" d="M36.9824 39.7625V35.8147C36.9824 35.072 36.1884 34.4766 35.2036 34.4766C34.2217 34.4766 33.4277 35.072 33.4277 35.8147V39.7625H36.9824Z" stroke="#231F20" stroke-width="0.540011" stroke-linecap="round" stroke-linejoin="round"/>
<path fill-rule="evenodd" clip-rule="evenodd" d="M30.5566 49.433H39.8514V39.7617H30.5566V49.433Z" stroke="#231F20" stroke-width="0.540011" stroke-linecap="round" stroke-linejoin="round"/>
<path fill-rule="evenodd" clip-rule="evenodd" d="M36.9824 49.4333V43.9005C36.9824 43.1599 36.1884 42.5645 35.2036 42.5645C34.2217 42.5645 33.4277 43.1599 33.4277 43.9005V49.4333H36.9824Z" fill="#EFB343" fill-opacity="0.3"/>
<path fill-rule="evenodd" clip-rule="evenodd" d="M36.9824 49.4333V43.9005C36.9824 43.1599 36.1884 42.5645 35.2036 42.5645C34.2217 42.5645 33.4277 43.1599 33.4277 43.9005V49.4333H36.9824Z" stroke="#231F20" stroke-width="0.540011" stroke-linecap="round" stroke-linejoin="round"/>
<path fill-rule="evenodd" clip-rule="evenodd" d="M36.836 29.7632C36.836 30.7528 36.1075 31.5538 35.2085 31.5538C34.3066 31.5538 33.5762 30.7528 33.5762 29.7632C33.5762 28.7726 34.3066 27.9727 35.2085 27.9727C36.1075 27.9727 36.836 28.7726 36.836 29.7632Z" fill="#EFB343" fill-opacity="0.3"/>
<path fill-rule="evenodd" clip-rule="evenodd" d="M36.836 29.7632C36.836 30.7528 36.1075 31.5538 35.2085 31.5538C34.3066 31.5538 33.5762 30.7528 33.5762 29.7632C33.5762 28.7726 34.3066 27.9727 35.2085 27.9727C36.1075 27.9727 36.836 28.7726 36.836 29.7632Z" stroke="#231F20" stroke-width="0.540011" stroke-linecap="round" stroke-linejoin="round"/>
<path fill-rule="evenodd" clip-rule="evenodd" d="M58.4316 57.5192H67.7495V39.7617H58.4316V57.5192Z" fill="white"/>
<path fill-rule="evenodd" clip-rule="evenodd" d="M58.4316 39.7623H67.7495L64.8867 32.1465H61.2925L58.4316 39.7623Z" fill="white"/>
<path fill-rule="evenodd" clip-rule="evenodd" d="M58.4316 39.7623H67.7495L64.8867 32.1465H61.2925L58.4316 39.7623Z" stroke="#231F20" stroke-width="0.540011" stroke-linecap="round" stroke-linejoin="round"/>
<path fill-rule="evenodd" clip-rule="evenodd" d="M61.2793 32.1477H64.9024V29.3262H61.2793V32.1477Z" fill="#EFB343" fill-opacity="0.3"/>
<path fill-rule="evenodd" clip-rule="evenodd" d="M61.2793 32.1477H64.9024V29.3262H61.2793V32.1477Z" stroke="#231F20" stroke-width="0.540011" stroke-linecap="round" stroke-linejoin="round"/>
<path fill-rule="evenodd" clip-rule="evenodd" d="M58.4316 49.4319H67.7495V39.7617H58.4316V49.4319Z" fill="white"/>
<path fill-rule="evenodd" clip-rule="evenodd" d="M58.4316 49.4319H67.7495V39.7617H58.4316V49.4319Z" stroke="#231F20" stroke-width="0.540011" stroke-linecap="round" stroke-linejoin="round"/>
<path fill-rule="evenodd" clip-rule="evenodd" d="M58.4316 57.4149H67.7495V49.4336H58.4316V57.4149Z" fill="white" stroke="#231F20" stroke-width="0.540011" stroke-linecap="round" stroke-linejoin="round"/>
<path fill-rule="evenodd" clip-rule="evenodd" d="M64.8729 57.4145V53.5427C64.8729 52.818 64.077 52.2324 63.0903 52.2324C62.1084 52.2324 61.3086 52.818 61.3086 53.5427V57.4145H62.7627H64.8729Z" fill="#EFB343" fill-opacity="0.3" stroke="#231F20" stroke-width="0.540011" stroke-linecap="round" stroke-linejoin="round"/>
<path fill-rule="evenodd" clip-rule="evenodd" d="M64.8729 49.4326V43.8998C64.8729 43.1592 64.077 42.5605 63.0903 42.5605C62.1084 42.5605 61.3086 43.1592 61.3086 43.8998V49.4326H64.8729Z" fill="#EFB343" fill-opacity="0.3"/>
<path fill-rule="evenodd" clip-rule="evenodd" d="M64.8729 49.4326V43.8998C64.8729 43.1592 64.077 42.5605 63.0903 42.5605C62.1084 42.5605 61.3086 43.1592 61.3086 43.8998V49.4326H64.8729Z" stroke="#231F20" stroke-width="0.540011" stroke-linecap="round" stroke-linejoin="round"/>
<path fill-rule="evenodd" clip-rule="evenodd" d="M40.0898 57.4132H58.4313V39.7617H40.0898V57.4132Z" fill="white" stroke="#231F20" stroke-width="0.540011" stroke-linecap="round" stroke-linejoin="round"/>
<path fill-rule="evenodd" clip-rule="evenodd" d="M39.8535 43.8078H58.4325V39.7637H39.8535V43.8078Z" fill="#EFB343" fill-opacity="0.3"/>
<path fill-rule="evenodd" clip-rule="evenodd" d="M39.8535 43.8078H58.4325V39.7637H39.8535V43.8078Z" stroke="#231F20" stroke-width="0.540011" stroke-linecap="round" stroke-linejoin="round"/>
<path fill-rule="evenodd" clip-rule="evenodd" d="M39.8535 50.3034H58.4325V43.8086H39.8535V50.3034Z" fill="white"/>
<path fill-rule="evenodd" clip-rule="evenodd" d="M39.8535 50.3034H58.4325V43.8086H39.8535V50.3034Z" stroke="#231F20" stroke-width="0.540011" stroke-linecap="round" stroke-linejoin="round"/>
<path fill-rule="evenodd" clip-rule="evenodd" d="M43.4453 57.4139H47.4336V53.5996H43.4453V57.4139Z" fill="#EFB343" fill-opacity="0.3" stroke="#231F20" stroke-width="0.540011"/>
<path fill-rule="evenodd" clip-rule="evenodd" d="M47.2887 50.3023V47.1535C47.2887 46.4987 46.4061 45.9668 45.3162 45.9668C44.2284 45.9668 43.3457 46.4987 43.3457 47.1535V50.3023H47.2887Z" fill="#EFB343" fill-opacity="0.3"/>
<path fill-rule="evenodd" clip-rule="evenodd" d="M47.2887 50.3023V47.1535C47.2887 46.4987 46.4061 45.9668 45.3162 45.9668C44.2284 45.9668 43.3457 46.4987 43.3457 47.1535V50.3023H47.2887Z" stroke="#231F20" stroke-width="0.540011" stroke-linecap="round" stroke-linejoin="round"/>
<path fill-rule="evenodd" clip-rule="evenodd" d="M50.8965 57.4139H54.8848V53.5996H50.8965V57.4139Z" fill="#EFB343" fill-opacity="0.3" stroke="#231F20" stroke-width="0.540011"/>
<path fill-rule="evenodd" clip-rule="evenodd" d="M54.902 50.3004V47.1515C54.902 46.4967 54.0174 45.9648 52.9295 45.9648C51.8416 45.9648 50.957 46.4967 50.957 47.1515V50.3004H54.902Z" fill="#EFB343" fill-opacity="0.3"/>
<path fill-rule="evenodd" clip-rule="evenodd" d="M54.902 50.3004V47.1515C54.902 46.4967 54.0174 45.9648 52.9295 45.9648C51.8416 45.9648 50.957 46.4967 50.957 47.1515V50.3004H54.902Z" stroke="#231F20" stroke-width="0.540011" stroke-linecap="round" stroke-linejoin="round"/>
<path d="M11.9766 57.5192H30.5574V39.7617H11.9766V57.5192Z" fill="white"/>
<path d="M11.9766 57.5192H30.5574V39.7617H11.9766V57.5192Z" fill="white"/>
<path fill-rule="evenodd" clip-rule="evenodd" d="M11.9785 57.4132H30.5575V39.7617H11.9785V57.4132Z" stroke="#231F20" stroke-width="0.540011" stroke-linecap="round" stroke-linejoin="round"/>
<path fill-rule="evenodd" clip-rule="evenodd" d="M11.9766 43.8078H30.5574V39.7637H11.9766V43.8078Z" fill="#EFB343" fill-opacity="0.3"/>
<path fill-rule="evenodd" clip-rule="evenodd" d="M11.9766 43.8078H30.5574V39.7637H11.9766V43.8078Z" stroke="#231F20" stroke-width="0.540011" stroke-linecap="round" stroke-linejoin="round"/>
<path fill-rule="evenodd" clip-rule="evenodd" d="M11.9766 50.3034H30.5574V43.8086H11.9766V50.3034Z" fill="white"/>
<path fill-rule="evenodd" clip-rule="evenodd" d="M11.9766 50.3034H30.5574V43.8086H11.9766V50.3034Z" stroke="#231F20" stroke-width="0.540011" stroke-linecap="round" stroke-linejoin="round"/>
<path fill-rule="evenodd" clip-rule="evenodd" d="M23.2852 57.1447H27.2734V53.5996H23.2852V57.1447Z" fill="#EFB343" fill-opacity="0.3" stroke="#231F20" stroke-width="0.540011"/>
<path fill-rule="evenodd" clip-rule="evenodd" d="M23.1191 50.3023V47.1535C23.1191 46.4987 24.0018 45.9668 25.0916 45.9668C26.1795 45.9668 27.066 46.4987 27.066 47.1535V50.3023H23.1191Z" fill="#EFB343" fill-opacity="0.3"/>
<path fill-rule="evenodd" clip-rule="evenodd" d="M23.1191 50.3023V47.1535C23.1191 46.4987 24.0018 45.9668 25.0916 45.9668C26.1795 45.9668 27.066 46.4987 27.066 47.1535V50.3023H23.1191Z" stroke="#231F20" stroke-width="0.540011" stroke-linecap="round" stroke-linejoin="round"/>
<path fill-rule="evenodd" clip-rule="evenodd" d="M15.4609 57.1437H19.4512V53.5996H15.4609V57.1437Z" fill="#EFB343" fill-opacity="0.3" stroke="#231F20" stroke-width="0.540011"/>
<path fill-rule="evenodd" clip-rule="evenodd" d="M15.5098 50.3004V47.1515C15.5098 46.4967 16.3924 45.9648 17.4803 45.9648C18.5701 45.9648 19.4528 46.4967 19.4528 47.1515V50.3004H15.5098Z" fill="#EFB343" fill-opacity="0.3"/>
<path fill-rule="evenodd" clip-rule="evenodd" d="M15.5098 50.3004V47.1515C15.5098 46.4967 16.3924 45.9648 17.4803 45.9648C18.5701 45.9648 19.4528 46.4967 19.4528 47.1515V50.3004H15.5098Z" stroke="#231F20" stroke-width="0.540011" stroke-linecap="round" stroke-linejoin="round"/>
</svg>
