<svg width="71" height="71" viewBox="0 0 71 71" fill="none" xmlns="http://www.w3.org/2000/svg">
<path fill-rule="evenodd" clip-rule="evenodd" d="M4.89258 57.532H66.0045V29.0938H4.89258V57.532Z" stroke="#231F20" stroke-width="0.605068" stroke-linecap="round" stroke-linejoin="round"/>
<path fill-rule="evenodd" clip-rule="evenodd" d="M4.89258 57.5321H66.0045V38.1699H4.89258V57.5321Z" fill="white" stroke="#231F20" stroke-width="0.605068" stroke-linecap="round" stroke-linejoin="round"/>
<path fill-rule="evenodd" clip-rule="evenodd" d="M22.4365 49.9718C22.5629 44.6699 17.5983 43.6152 17.5983 43.6152C17.5983 43.6152 12.6384 44.6699 12.76 49.9718V57.5318H22.4384L22.4365 49.9718Z" fill="#EFB343" fill-opacity="0.3" stroke="#231F20" stroke-width="0.605068" stroke-linecap="round" stroke-linejoin="round"/>
<path fill-rule="evenodd" clip-rule="evenodd" d="M40.5865 49.9718C40.7129 44.6699 35.7504 43.6152 35.7504 43.6152C35.7504 43.6152 30.788 44.6699 30.9125 49.9718V57.5318H40.5913L40.5865 49.9718Z" fill="#EFB343" fill-opacity="0.3" stroke="#231F20" stroke-width="0.605068" stroke-linecap="round" stroke-linejoin="round"/>
<path fill-rule="evenodd" clip-rule="evenodd" d="M58.1334 49.9718C58.2607 44.6699 53.2964 43.6152 53.2964 43.6152C53.2964 43.6152 48.3339 44.6699 48.4594 49.9718V57.5318H58.1381L58.1334 49.9718Z" fill="#EFB343" fill-opacity="0.3" stroke="#231F20" stroke-width="0.605068" stroke-linecap="round" stroke-linejoin="round"/>
<path fill-rule="evenodd" clip-rule="evenodd" d="M4.89258 38.1698H66.0045V29.0938H4.89258V38.1698Z" fill="white" stroke="#231F20" stroke-width="0.605068" stroke-linecap="round" stroke-linejoin="round"/>
<path fill-rule="evenodd" clip-rule="evenodd" d="M13.9668 35.2107C14.0242 33.1341 11.8526 32.7227 11.8526 32.7227C11.8526 32.7227 9.6801 33.1341 9.73339 35.2107V38.1683H13.9668V35.2107Z" fill="#EFB343" fill-opacity="0.3" stroke="#231F20" stroke-width="0.605068" stroke-linecap="round" stroke-linejoin="round"/>
<path fill-rule="evenodd" clip-rule="evenodd" d="M21.8321 35.2095C21.8875 33.1367 19.716 32.7227 19.716 32.7227C19.716 32.7227 17.5404 33.1367 17.5988 35.2095V38.1683H21.8321V35.2095Z" fill="#EFB343" fill-opacity="0.3" stroke="#231F20" stroke-width="0.605068" stroke-linecap="round" stroke-linejoin="round"/>
<path fill-rule="evenodd" clip-rule="evenodd" d="M29.6962 35.2095C29.7536 33.1367 27.583 32.7227 27.583 32.7227C27.583 32.7227 25.4145 33.1367 25.4657 35.2095V38.1683H29.7003L29.6962 35.2095Z" fill="#EFB343" fill-opacity="0.3" stroke="#231F20" stroke-width="0.605068" stroke-linecap="round" stroke-linejoin="round"/>
<path fill-rule="evenodd" clip-rule="evenodd" d="M38.1701 35.2095C38.2224 33.1367 36.0539 32.7227 36.0539 32.7227C36.0539 32.7227 33.8803 33.1367 33.9366 35.2095V38.1683H38.1701V35.2095Z" fill="#EFB343" fill-opacity="0.3" stroke="#231F20" stroke-width="0.605068" stroke-linecap="round" stroke-linejoin="round"/>
<path fill-rule="evenodd" clip-rule="evenodd" d="M46.0353 35.2095C46.0886 33.1367 43.9196 32.7227 43.9196 32.7227C43.9196 32.7227 41.7465 33.1367 41.8018 35.2095V38.1683H46.0353V35.2095Z" fill="#EFB343" fill-opacity="0.3" stroke="#231F20" stroke-width="0.605068" stroke-linecap="round" stroke-linejoin="round"/>
<path fill-rule="evenodd" clip-rule="evenodd" d="M53.9025 35.2095C53.9548 33.1367 51.7862 32.7227 51.7862 32.7227C51.7862 32.7227 49.6167 33.1367 49.6689 35.2095V38.1683H53.9025V35.2095Z" fill="#EFB343" fill-opacity="0.3" stroke="#231F20" stroke-width="0.605068" stroke-linecap="round" stroke-linejoin="round"/>
<path fill-rule="evenodd" clip-rule="evenodd" d="M61.7676 35.2095C61.823 33.1367 59.6494 32.7227 59.6494 32.7227C59.6494 32.7227 57.4779 33.1367 57.5343 35.2095V38.1683H61.7676V35.2095Z" fill="#EFB343" fill-opacity="0.3" stroke="#231F20" stroke-width="0.605068" stroke-linecap="round" stroke-linejoin="round"/>
<path fill-rule="evenodd" clip-rule="evenodd" d="M8.51823 29.0933H4.89258L4.89971 25.4629H8.52299L8.51823 29.0933Z" fill="#EFB343" fill-opacity="0.3" stroke="#231F20" stroke-width="0.605068" stroke-linecap="round" stroke-linejoin="round"/>
<path fill-rule="evenodd" clip-rule="evenodd" d="M7.91693 22.4376H4.89258L4.89853 18.2021H7.91792L7.91693 22.4376Z" fill="#EFB343" fill-opacity="0.3" stroke="#231F20" stroke-width="0.605068" stroke-linecap="round" stroke-linejoin="round"/>
<path fill-rule="evenodd" clip-rule="evenodd" d="M8.5217 17.1934C8.57277 15.005 6.40285 14.5713 6.40285 14.5713C6.40285 14.5713 4.23693 15.005 4.288 17.1934V17.2225C4.288 17.7642 4.67252 18.2017 5.15016 18.2017H7.65854C8.13218 18.2017 8.5217 17.7642 8.5217 17.2225V17.1934Z" fill="white" stroke="#231F20" stroke-width="0.605068" stroke-linecap="round" stroke-linejoin="round"/>
<path d="M6.70703 14.5711V12.7559" stroke="#231F20" stroke-width="0.605068" stroke-linecap="round" stroke-linejoin="round"/>
<path fill-rule="evenodd" clip-rule="evenodd" d="M9.12766 24.5043C9.12766 25.0334 8.6955 25.4628 8.16508 25.4628H5.25064C4.72022 25.4628 4.28711 25.0334 4.28711 24.5043V23.396C4.28711 22.8651 4.72022 22.4375 5.25064 22.4375H8.16508C8.6955 22.4375 9.12766 22.8651 9.12766 23.396V24.5043Z" fill="white" stroke="#231F20" stroke-width="0.605068" stroke-linecap="round" stroke-linejoin="round"/>
<path fill-rule="evenodd" clip-rule="evenodd" d="M65.9999 29.0933H62.9785L62.9835 25.4629H66.0039L65.9999 29.0933Z" fill="#EFB343" fill-opacity="0.3" stroke="#231F20" stroke-width="0.605068" stroke-linecap="round" stroke-linejoin="round"/>
<path fill-rule="evenodd" clip-rule="evenodd" d="M65.9999 22.4376H62.9785L62.9835 18.2021H66.0039L65.9999 22.4376Z" fill="#EFB343" fill-opacity="0.3" stroke="#231F20" stroke-width="0.605068" stroke-linecap="round" stroke-linejoin="round"/>
<path fill-rule="evenodd" clip-rule="evenodd" d="M66.6076 17.1934C66.6607 15.005 64.4863 14.5713 64.4863 14.5713C64.4863 14.5713 62.3199 15.005 62.374 17.1934V17.2225C62.374 17.7642 62.7598 18.2017 63.2358 18.2017H65.7438C66.2208 18.2017 66.6076 17.7642 66.6076 17.2225V17.1934Z" fill="white" stroke="#231F20" stroke-width="0.605068" stroke-linecap="round" stroke-linejoin="round"/>
<path d="M64.793 14.5711L64.7966 12.7559" stroke="#231F20" stroke-width="0.605068" stroke-linecap="round" stroke-linejoin="round"/>
<path fill-rule="evenodd" clip-rule="evenodd" d="M67.2136 24.5043C67.2136 25.0334 66.7815 25.4628 66.2493 25.4628H63.3373C62.8051 25.4628 62.373 25.0334 62.373 24.5043V23.396C62.373 22.8651 62.8051 22.4375 63.3373 22.4375H66.2493C66.7815 22.4375 67.2136 22.8651 67.2136 23.396V24.5043Z" fill="white" stroke="#231F20" stroke-width="0.605068" stroke-linecap="round" stroke-linejoin="round"/>
<path fill-rule="evenodd" clip-rule="evenodd" d="M9.39514 23.043C9.39868 23.0798 9.41549 23.111 9.41549 23.1488V24.224C9.41549 24.7373 9.0146 25.154 8.52344 25.154V29.0937H16.9944V23.043H9.39514Z" fill="#EFB343" fill-opacity="0.3" stroke="#231F20" stroke-width="0.605068" stroke-linecap="round" stroke-linejoin="round"/>
<path fill-rule="evenodd" clip-rule="evenodd" d="M16.9941 29.0937H26.0702V23.043H16.9941V29.0937Z" fill="#EFB343" fill-opacity="0.3" stroke="#231F20" stroke-width="0.605068" stroke-linecap="round" stroke-linejoin="round"/>
<path fill-rule="evenodd" clip-rule="evenodd" d="M26.0703 29.0937H35.7514V23.043H26.0703V29.0937Z" fill="#EFB343" fill-opacity="0.3" stroke="#231F20" stroke-width="0.605068" stroke-linecap="round" stroke-linejoin="round"/>
<path fill-rule="evenodd" clip-rule="evenodd" d="M35.75 29.0937H44.826V23.043H35.75V29.0937Z" fill="#EFB343" fill-opacity="0.3" stroke="#231F20" stroke-width="0.605068" stroke-linecap="round" stroke-linejoin="round"/>
<path fill-rule="evenodd" clip-rule="evenodd" d="M44.8262 29.0937H53.9022V23.043H44.8262V29.0937Z" fill="#EFB343" fill-opacity="0.3" stroke="#231F20" stroke-width="0.605068" stroke-linecap="round" stroke-linejoin="round"/>
<path fill-rule="evenodd" clip-rule="evenodd" d="M62.9774 25.154C62.4483 25.154 62.0188 24.7373 62.0188 24.224V23.1488C62.0188 23.111 62.0378 23.0798 62.0416 23.043H53.9023V29.0937H62.9784V25.154H62.9774Z" fill="#EFB343" fill-opacity="0.3" stroke="#231F20" stroke-width="0.605068" stroke-linecap="round" stroke-linejoin="round"/>
<path fill-rule="evenodd" clip-rule="evenodd" d="M44.1669 17.6979V18.5526C44.1669 19.0397 44.5663 19.4335 45.0564 19.4335H45.8918V23.1436H24.1094V19.4099H24.9458C25.4359 19.4099 25.8343 19.0152 25.8343 18.529V17.6988L44.1669 17.6979Z" fill="white" stroke="#231F20" stroke-width="0.605068" stroke-linecap="round" stroke-linejoin="round"/>
<g clip-path="url(#clip0_468_12657)">
<path d="M34.3419 10.4985L34.3164 10.5506V10.6085V17.5419V17.7919H34.5664H35.0997H35.3497V17.5419V14.1173C35.5415 14.0818 35.8038 14.0585 36.1664 14.0585C36.6377 14.0585 37.0806 14.1243 37.5402 14.1925C37.7744 14.2272 38.013 14.2626 38.2618 14.2903C38.9799 14.3702 39.7317 14.3738 40.5298 14.0391L40.6831 13.9748V13.8085V10.0752V9.69923L40.3364 9.84465C39.6512 10.1321 38.9976 10.1357 38.3171 10.06C38.1063 10.0366 37.887 10.0042 37.6619 9.97103C37.1809 9.90005 36.6735 9.8252 36.1664 9.8252C35.511 9.8252 35.0982 9.89608 34.8252 10.0207C34.6842 10.0851 34.58 10.1639 34.5002 10.2534C34.422 10.3411 34.3753 10.4304 34.3419 10.4985Z" fill="#FBE9C7" stroke="#231F20" stroke-width="0.5"/>
</g>
<defs>
<clipPath id="clip0_468_12657">
<rect width="8" height="9" fill="white" transform="translate(34 8.54395)"/>
</clipPath>
</defs>
</svg>
