<svg width="71" height="71" viewBox="0 0 71 71" fill="none" xmlns="http://www.w3.org/2000/svg">
<path fill-rule="evenodd" clip-rule="evenodd" d="M4.39258 55.4245H65.5045V26.9863H4.39258V55.4245Z" stroke="#231F20" stroke-width="0.605068" stroke-linecap="round" stroke-linejoin="round"/>
<path fill-rule="evenodd" clip-rule="evenodd" d="M4.39258 55.4247H65.5045V36.0625H4.39258V55.4247Z" fill="white" stroke="#231F20" stroke-width="0.605068" stroke-linecap="round" stroke-linejoin="round"/>
<path fill-rule="evenodd" clip-rule="evenodd" d="M21.9365 47.8664C22.0629 42.5645 17.0983 41.5098 17.0983 41.5098C17.0983 41.5098 12.1384 42.5645 12.26 47.8664V55.4263H21.9384L21.9365 47.8664Z" fill="#EFB343" fill-opacity="0.3" stroke="#231F20" stroke-width="0.605068" stroke-linecap="round" stroke-linejoin="round"/>
<path fill-rule="evenodd" clip-rule="evenodd" d="M40.0865 47.8664C40.2129 42.5645 35.2504 41.5098 35.2504 41.5098C35.2504 41.5098 30.288 42.5645 30.4125 47.8664V55.4263H40.0913L40.0865 47.8664Z" fill="#EFB343" fill-opacity="0.3" stroke="#231F20" stroke-width="0.605068" stroke-linecap="round" stroke-linejoin="round"/>
<path fill-rule="evenodd" clip-rule="evenodd" d="M57.6334 47.8664C57.7607 42.5645 52.7964 41.5098 52.7964 41.5098C52.7964 41.5098 47.8339 42.5645 47.9594 47.8664V55.4263H57.6381L57.6334 47.8664Z" fill="#EFB343" fill-opacity="0.3" stroke="#231F20" stroke-width="0.605068" stroke-linecap="round" stroke-linejoin="round"/>
<path fill-rule="evenodd" clip-rule="evenodd" d="M4.39258 36.0624H65.5045V26.9863H4.39258V36.0624Z" fill="white" stroke="#231F20" stroke-width="0.605068" stroke-linecap="round" stroke-linejoin="round"/>
<path fill-rule="evenodd" clip-rule="evenodd" d="M13.4668 33.1053C13.5242 31.0286 11.3526 30.6172 11.3526 30.6172C11.3526 30.6172 9.1801 31.0286 9.23339 33.1053V36.0628H13.4668V33.1053Z" fill="#EFB343" fill-opacity="0.3" stroke="#231F20" stroke-width="0.605068" stroke-linecap="round" stroke-linejoin="round"/>
<path fill-rule="evenodd" clip-rule="evenodd" d="M21.3321 33.104C21.3875 31.0312 19.216 30.6172 19.216 30.6172C19.216 30.6172 17.0404 31.0312 17.0988 33.104V36.0628H21.3321V33.104Z" fill="#EFB343" fill-opacity="0.3" stroke="#231F20" stroke-width="0.605068" stroke-linecap="round" stroke-linejoin="round"/>
<path fill-rule="evenodd" clip-rule="evenodd" d="M29.1962 33.104C29.2536 31.0312 27.083 30.6172 27.083 30.6172C27.083 30.6172 24.9145 31.0312 24.9657 33.104V36.0628H29.2003L29.1962 33.104Z" fill="#EFB343" fill-opacity="0.3" stroke="#231F20" stroke-width="0.605068" stroke-linecap="round" stroke-linejoin="round"/>
<path fill-rule="evenodd" clip-rule="evenodd" d="M37.6701 33.104C37.7224 31.0312 35.5539 30.6172 35.5539 30.6172C35.5539 30.6172 33.3803 31.0312 33.4366 33.104V36.0628H37.6701V33.104Z" fill="#EFB343" fill-opacity="0.3" stroke="#231F20" stroke-width="0.605068" stroke-linecap="round" stroke-linejoin="round"/>
<path fill-rule="evenodd" clip-rule="evenodd" d="M45.5353 33.104C45.5886 31.0312 43.4196 30.6172 43.4196 30.6172C43.4196 30.6172 41.2465 31.0312 41.3018 33.104V36.0628H45.5353V33.104Z" fill="#EFB343" fill-opacity="0.3" stroke="#231F20" stroke-width="0.605068" stroke-linecap="round" stroke-linejoin="round"/>
<path fill-rule="evenodd" clip-rule="evenodd" d="M53.4025 33.104C53.4548 31.0312 51.2862 30.6172 51.2862 30.6172C51.2862 30.6172 49.1167 31.0312 49.1689 33.104V36.0628H53.4025V33.104Z" fill="#EFB343" fill-opacity="0.3" stroke="#231F20" stroke-width="0.605068" stroke-linecap="round" stroke-linejoin="round"/>
<path fill-rule="evenodd" clip-rule="evenodd" d="M61.2676 33.104C61.323 31.0312 59.1494 30.6172 59.1494 30.6172C59.1494 30.6172 56.9779 31.0312 57.0343 33.104V36.0628H61.2676V33.104Z" fill="#EFB343" fill-opacity="0.3" stroke="#231F20" stroke-width="0.605068" stroke-linecap="round" stroke-linejoin="round"/>
<path fill-rule="evenodd" clip-rule="evenodd" d="M8.01823 26.9869H4.39258L4.39971 23.3564H8.02299L8.01823 26.9869Z" fill="#EFB343" fill-opacity="0.3" stroke="#231F20" stroke-width="0.605068" stroke-linecap="round" stroke-linejoin="round"/>
<path fill-rule="evenodd" clip-rule="evenodd" d="M7.41693 20.3312H4.39258L4.39853 16.0957H7.41792L7.41693 20.3312Z" fill="#EFB343" fill-opacity="0.3" stroke="#231F20" stroke-width="0.605068" stroke-linecap="round" stroke-linejoin="round"/>
<path fill-rule="evenodd" clip-rule="evenodd" d="M8.0217 15.0879C8.07277 12.8996 5.90285 12.4658 5.90285 12.4658C5.90285 12.4658 3.73693 12.8996 3.788 15.0879V15.117C3.788 15.6587 4.17252 16.0962 4.65016 16.0962H7.15854C7.63218 16.0962 8.0217 15.6587 8.0217 15.117V15.0879Z" fill="white" stroke="#231F20" stroke-width="0.605068" stroke-linecap="round" stroke-linejoin="round"/>
<path d="M6.20703 12.4656V10.6504" stroke="#231F20" stroke-width="0.605068" stroke-linecap="round" stroke-linejoin="round"/>
<path fill-rule="evenodd" clip-rule="evenodd" d="M8.62766 22.3979C8.62766 22.9269 8.1955 23.3564 7.66508 23.3564H4.75064C4.22022 23.3564 3.78711 22.9269 3.78711 22.3979V21.2896C3.78711 20.7586 4.22022 20.3311 4.75064 20.3311H7.66508C8.1955 20.3311 8.62766 20.7586 8.62766 21.2896V22.3979Z" fill="white" stroke="#231F20" stroke-width="0.605068" stroke-linecap="round" stroke-linejoin="round"/>
<path fill-rule="evenodd" clip-rule="evenodd" d="M65.4999 26.9869H62.4785L62.4835 23.3564H65.5039L65.4999 26.9869Z" fill="#EFB343" fill-opacity="0.3" stroke="#231F20" stroke-width="0.605068" stroke-linecap="round" stroke-linejoin="round"/>
<path fill-rule="evenodd" clip-rule="evenodd" d="M65.4999 20.3312H62.4785L62.4835 16.0957H65.5039L65.4999 20.3312Z" fill="#EFB343" fill-opacity="0.3" stroke="#231F20" stroke-width="0.605068" stroke-linecap="round" stroke-linejoin="round"/>
<path fill-rule="evenodd" clip-rule="evenodd" d="M66.1076 15.0879C66.1607 12.8996 63.9863 12.4658 63.9863 12.4658C63.9863 12.4658 61.8199 12.8996 61.874 15.0879V15.117C61.874 15.6587 62.2598 16.0962 62.7358 16.0962H65.2438C65.7208 16.0962 66.1076 15.6587 66.1076 15.117V15.0879Z" fill="white" stroke="#231F20" stroke-width="0.605068" stroke-linecap="round" stroke-linejoin="round"/>
<path d="M64.293 12.4656L64.2966 10.6504" stroke="#231F20" stroke-width="0.605068" stroke-linecap="round" stroke-linejoin="round"/>
<path fill-rule="evenodd" clip-rule="evenodd" d="M66.7136 22.3979C66.7136 22.9269 66.2815 23.3564 65.7493 23.3564H62.8373C62.3051 23.3564 61.873 22.9269 61.873 22.3979V21.2896C61.873 20.7586 62.3051 20.3311 62.8373 20.3311H65.7493C66.2815 20.3311 66.7136 20.7586 66.7136 21.2896V22.3979Z" fill="white" stroke="#231F20" stroke-width="0.605068" stroke-linecap="round" stroke-linejoin="round"/>
<path fill-rule="evenodd" clip-rule="evenodd" d="M8.89514 20.9365C8.89868 20.9733 8.91549 21.0046 8.91549 21.0423V22.1176C8.91549 22.6309 8.5146 23.0475 8.02344 23.0475V26.9872H16.4944V20.9365H8.89514Z" fill="#EFB343" fill-opacity="0.3" stroke="#231F20" stroke-width="0.605068" stroke-linecap="round" stroke-linejoin="round"/>
<path fill-rule="evenodd" clip-rule="evenodd" d="M16.4941 26.9872H25.5702V20.9365H16.4941V26.9872Z" fill="#EFB343" fill-opacity="0.3" stroke="#231F20" stroke-width="0.605068" stroke-linecap="round" stroke-linejoin="round"/>
<path fill-rule="evenodd" clip-rule="evenodd" d="M25.5703 26.9872H35.2514V20.9365H25.5703V26.9872Z" fill="#EFB343" fill-opacity="0.3" stroke="#231F20" stroke-width="0.605068" stroke-linecap="round" stroke-linejoin="round"/>
<path fill-rule="evenodd" clip-rule="evenodd" d="M35.25 26.9872H44.326V20.9365H35.25V26.9872Z" fill="#EFB343" fill-opacity="0.3" stroke="#231F20" stroke-width="0.605068" stroke-linecap="round" stroke-linejoin="round"/>
<path fill-rule="evenodd" clip-rule="evenodd" d="M44.3262 26.9872H53.4022V20.9365H44.3262V26.9872Z" fill="#EFB343" fill-opacity="0.3" stroke="#231F20" stroke-width="0.605068" stroke-linecap="round" stroke-linejoin="round"/>
<path fill-rule="evenodd" clip-rule="evenodd" d="M62.4774 23.0475C61.9483 23.0475 61.5188 22.6309 61.5188 22.1176V21.0423C61.5188 21.0046 61.5378 20.9733 61.5416 20.9365H53.4023V26.9872H62.4784V23.0475H62.4774Z" fill="#EFB343" fill-opacity="0.3" stroke="#231F20" stroke-width="0.605068" stroke-linecap="round" stroke-linejoin="round"/>
<path fill-rule="evenodd" clip-rule="evenodd" d="M43.6669 15.5925V16.4471C43.6669 16.9342 44.0663 17.328 44.5564 17.328H45.3918V21.0381H23.6094V17.3045H24.4458C24.9359 17.3045 25.3343 16.9097 25.3343 16.4236V15.5934L43.6669 15.5925Z" fill="white" stroke="#231F20" stroke-width="0.605068" stroke-linecap="round" stroke-linejoin="round"/>
</svg>
