<svg width="17" height="18" viewBox="0 0 17 18" fill="none" xmlns="http://www.w3.org/2000/svg">
<path fill-rule="evenodd" clip-rule="evenodd" d="M5.29417 2.09064C5.6458 1.685 6.0806 1.35977 6.56905 1.13704C7.05751 0.91431 7.58816 0.799296 8.125 0.799806C9.25583 0.799806 10.2692 1.29981 10.9558 2.09064C11.4914 2.0524 12.029 2.12988 12.5319 2.31781C13.0349 2.50575 13.4916 2.79973 13.8708 3.17981C14.2507 3.55902 14.5446 4.01553 14.7326 4.51835C14.9205 5.02117 14.9981 5.55853 14.96 6.09397C15.3655 6.44568 15.6906 6.88052 15.9131 7.36897C16.1357 7.85741 16.2506 8.38803 16.25 8.9248C16.2505 9.46164 16.1355 9.9923 15.9128 10.4808C15.69 10.9692 15.3648 11.404 14.9592 11.7556C14.9972 12.2911 14.9197 12.8284 14.7317 13.3313C14.5438 13.8341 14.2499 14.2906 13.87 14.6698C13.4908 15.0497 13.0343 15.3436 12.5315 15.5315C12.0286 15.7195 11.4913 15.797 10.9558 15.759C10.6042 16.1646 10.1694 16.4898 9.68095 16.7126C9.19249 16.9353 8.66183 17.0503 8.125 17.0498C7.58816 17.0503 7.05751 16.9353 6.56905 16.7126C6.0806 16.4898 5.6458 16.1646 5.29417 15.759C4.75865 15.7973 4.22115 15.72 3.71817 15.5322C3.2152 15.3444 2.75852 15.0506 2.37917 14.6706C1.99914 14.2913 1.70518 13.8347 1.51725 13.3317C1.32932 12.8287 1.25182 12.2912 1.29 11.7556C0.884511 11.4039 0.559439 10.9691 0.336856 10.4806C0.114273 9.9922 -0.000611344 9.46158 2.44654e-06 8.9248C2.44654e-06 7.79397 0.500002 6.78064 1.29084 6.09397C1.25272 5.55853 1.33025 5.02115 1.51818 4.51832C1.70612 4.0155 2.00004 3.55899 2.38 3.17981C2.75919 2.79984 3.21569 2.50592 3.71852 2.31799C4.22135 2.13006 4.75872 2.05252 5.29417 2.09064ZM11.1333 7.41314C11.1833 7.34651 11.2195 7.27057 11.2397 7.18976C11.26 7.10896 11.2638 7.02492 11.2511 6.9426C11.2384 6.86028 11.2094 6.78133 11.1657 6.71039C11.122 6.63945 11.0646 6.57795 10.9969 6.52951C10.9291 6.48108 10.8523 6.44667 10.7711 6.42833C10.6898 6.40998 10.6057 6.40807 10.5237 6.42269C10.4417 6.43731 10.3635 6.46818 10.2936 6.51348C10.2237 6.55878 10.1635 6.6176 10.1167 6.68647L7.42 10.4615L6.06667 9.10814C5.94819 8.99774 5.79148 8.93764 5.62957 8.94049C5.46765 8.94335 5.31316 9.00894 5.19865 9.12345C5.08414 9.23796 5.01854 9.39245 5.01569 9.55437C5.01283 9.71629 5.07293 9.87299 5.18333 9.99147L7.05833 11.8665C7.12249 11.9306 7.19983 11.98 7.28499 12.0112C7.37015 12.0424 7.46108 12.0547 7.55147 12.0472C7.64186 12.0398 7.72955 12.0128 7.80844 11.968C7.88733 11.9233 7.95554 11.8619 8.00833 11.7881L11.1333 7.41314Z" fill="#FFA500"/>
</svg>
